solid Default
  facet normal -1.000000e+00 0.000000e+00 0.000000e+00
    outer loop
      vertex -6.600000e+01 6.400000e+01 0.000000e+00
      vertex -6.600000e+01 4.600000e+01 2.099998e+00
      vertex -6.600000e+01 6.400000e+01 2.099998e+00
    endloop
  endfacet
  facet normal -1.000000e+00 0.000000e+00 0.000000e+00
    outer loop
      vertex -6.600000e+01 4.600000e+01 2.099998e+00
      vertex -6.600000e+01 3.200000e+01 2.000000e+00
      vertex -6.600000e+01 4.600000e+01 4.500000e+01
    endloop
  endfacet
  facet normal -1.000000e+00 0.000000e+00 0.000000e+00
    outer loop
      vertex -6.600000e+01 6.400000e+01 0.000000e+00
      vertex -6.600000e+01 3.200000e+01 2.000000e+00
      vertex -6.600000e+01 4.600000e+01 2.099998e+00
    endloop
  endfacet
  facet normal -1.000000e+00 0.000000e+00 0.000000e+00
    outer loop
      vertex -6.600000e+01 -6.400000e+01 0.000000e+00
      vertex -6.600000e+01 3.200000e+01 2.000000e+00
      vertex -6.600000e+01 6.400000e+01 0.000000e+00
    endloop
  endfacet
  facet normal -1.000000e+00 0.000000e+00 0.000000e+00
    outer loop
      vertex -6.600000e+01 3.200000e+01 2.000000e+00
      vertex -6.600000e+01 -6.400000e+01 0.000000e+00
      vertex -6.600000e+01 -5.000000e+01 2.000000e+00
    endloop
  endfacet
  facet normal -1.000000e+00 0.000000e+00 0.000000e+00
    outer loop
      vertex -6.600000e+01 -6.400000e+01 4.500000e+01
      vertex -6.600000e+01 -5.000000e+01 2.000000e+00
      vertex -6.600000e+01 -6.400000e+01 0.000000e+00
    endloop
  endfacet
  facet normal -1.000000e+00 0.000000e+00 0.000000e+00
    outer loop
      vertex -6.600000e+01 -5.000000e+01 2.000000e+00
      vertex -6.600000e+01 -6.400000e+01 4.500000e+01
      vertex -6.600000e+01 -5.000000e+01 4.500000e+01
    endloop
  endfacet
  facet normal -1.000000e+00 0.000000e+00 0.000000e+00
    outer loop
      vertex -6.600000e+01 4.600000e+01 4.500000e+01
      vertex -6.600000e+01 3.200000e+01 2.000000e+00
      vertex -6.600000e+01 3.200000e+01 4.500000e+01
    endloop
  endfacet
  facet normal 0.000000e+00 0.000000e+00 1.000000e+00
    outer loop
      vertex 6.600000e+01 6.400000e+01 2.099998e+00
      vertex 4.700000e+01 3.200000e+01 2.099998e+00
      vertex 6.600000e+01 -6.400000e+01 2.099998e+00
    endloop
  endfacet
  facet normal 0.000000e+00 0.000000e+00 1.000000e+00
    outer loop
      vertex 6.600000e+01 6.400000e+01 2.099998e+00
      vertex 4.600000e+01 4.600000e+01 2.099998e+00
      vertex 4.700000e+01 3.200000e+01 2.099998e+00
    endloop
  endfacet
  facet normal 0.000000e+00 0.000000e+00 1.000000e+00
    outer loop
      vertex 6.600000e+01 6.400000e+01 2.099998e+00
      vertex 3.200000e+01 4.700000e+01 2.099998e+00
      vertex 4.600000e+01 4.600000e+01 2.099998e+00
    endloop
  endfacet
  facet normal 0.000000e+00 0.000000e+00 1.000000e+00
    outer loop
      vertex -6.600000e+01 6.400000e+01 2.099998e+00
      vertex 3.200000e+01 4.700000e+01 2.099998e+00
      vertex 6.600000e+01 6.400000e+01 2.099998e+00
    endloop
  endfacet
  facet normal 0.000000e+00 0.000000e+00 1.000000e+00
    outer loop
      vertex 3.200000e+01 4.700000e+01 2.099998e+00
      vertex -6.600000e+01 6.400000e+01 2.099998e+00
      vertex -5.200000e+01 4.700000e+01 2.099998e+00
    endloop
  endfacet
  facet normal 0.000000e+00 0.000000e+00 1.000000e+00
    outer loop
      vertex -6.600000e+01 4.600000e+01 2.099998e+00
      vertex -5.200000e+01 4.700000e+01 2.099998e+00
      vertex -6.600000e+01 6.400000e+01 2.099998e+00
    endloop
  endfacet
  facet normal 0.000000e+00 0.000000e+00 1.000000e+00
    outer loop
      vertex -5.200000e+01 4.700000e+01 2.099998e+00
      vertex -6.600000e+01 4.600000e+01 2.099998e+00
      vertex -5.200000e+01 4.600000e+01 2.099998e+00
    endloop
  endfacet
  facet normal 0.000000e+00 0.000000e+00 1.000000e+00
    outer loop
      vertex 4.700000e+01 -5.000000e+01 2.099998e+00
      vertex 6.600000e+01 -6.400000e+01 2.099998e+00
      vertex 4.700000e+01 3.200000e+01 2.099998e+00
    endloop
  endfacet
  facet normal 0.000000e+00 0.000000e+00 1.000000e+00
    outer loop
      vertex 4.600000e+01 -6.400000e+01 2.099998e+00
      vertex 4.700000e+01 -5.000000e+01 2.099998e+00
      vertex 4.600000e+01 -5.000000e+01 2.099998e+00
    endloop
  endfacet
  facet normal 0.000000e+00 0.000000e+00 1.000000e+00
    outer loop
      vertex 4.700000e+01 -5.000000e+01 2.099998e+00
      vertex 4.600000e+01 -6.400000e+01 2.099998e+00
      vertex 6.600000e+01 -6.400000e+01 2.099998e+00
    endloop
  endfacet
  facet normal 0.000000e+00 0.000000e+00 1.000000e+00
    outer loop
      vertex 4.700000e+01 3.200000e+01 2.099998e+00
      vertex 4.600000e+01 4.600000e+01 2.099998e+00
      vertex 4.600000e+01 3.200000e+01 2.099998e+00
    endloop
  endfacet
  facet normal 0.000000e+00 0.000000e+00 1.000000e+00
    outer loop
      vertex 4.600000e+01 4.600000e+01 2.099998e+00
      vertex 3.200000e+01 4.700000e+01 2.099998e+00
      vertex 3.200000e+01 4.600000e+01 2.099998e+00
    endloop
  endfacet
  facet normal 1.000000e+00 0.000000e+00 0.000000e+00
    outer loop
      vertex 6.600000e+01 -6.400000e+01 2.099998e+00
      vertex 6.600000e+01 6.400000e+01 0.000000e+00
      vertex 6.600000e+01 6.400000e+01 2.099998e+00
    endloop
  endfacet
  facet normal 1.000000e+00 0.000000e+00 0.000000e+00
    outer loop
      vertex 6.600000e+01 6.400000e+01 0.000000e+00
      vertex 6.600000e+01 -6.400000e+01 2.099998e+00
      vertex 6.600000e+01 -6.400000e+01 0.000000e+00
    endloop
  endfacet
  facet normal 0.000000e+00 0.000000e+00 -1.000000e+00
    outer loop
      vertex 3.400000e+01 3.400000e+01 0.000000e+00
      vertex 6.600000e+01 -6.400000e+01 0.000000e+00
      vertex 3.400000e+01 -5.200000e+01 0.000000e+00
    endloop
  endfacet
  facet normal 0.000000e+00 0.000000e+00 -1.000000e+00
    outer loop
      vertex -6.600000e+01 -6.400000e+01 0.000000e+00
      vertex 3.400000e+01 -5.200000e+01 0.000000e+00
      vertex 6.600000e+01 -6.400000e+01 0.000000e+00
    endloop
  endfacet
  facet normal 0.000000e+00 0.000000e+00 -1.000000e+00
    outer loop
      vertex -5.400000e+01 -5.200000e+01 0.000000e+00
      vertex -6.600000e+01 -6.400000e+01 0.000000e+00
      vertex -5.400000e+01 3.400000e+01 0.000000e+00
    endloop
  endfacet
  facet normal 0.000000e+00 0.000000e+00 -1.000000e+00
    outer loop
      vertex 3.400000e+01 -5.200000e+01 0.000000e+00
      vertex -6.600000e+01 -6.400000e+01 0.000000e+00
      vertex -5.400000e+01 -5.200000e+01 0.000000e+00
    endloop
  endfacet
  facet normal 0.000000e+00 0.000000e+00 -1.000000e+00
    outer loop
      vertex 6.600000e+01 -6.400000e+01 0.000000e+00
      vertex 3.400000e+01 3.400000e+01 0.000000e+00
      vertex 6.600000e+01 6.400000e+01 0.000000e+00
    endloop
  endfacet
  facet normal 0.000000e+00 0.000000e+00 -1.000000e+00
    outer loop
      vertex -6.600000e+01 6.400000e+01 0.000000e+00
      vertex 3.400000e+01 3.400000e+01 0.000000e+00
      vertex -5.400000e+01 3.400000e+01 0.000000e+00
    endloop
  endfacet
  facet normal 0.000000e+00 0.000000e+00 -1.000000e+00
    outer loop
      vertex 3.400000e+01 3.400000e+01 0.000000e+00
      vertex -6.600000e+01 6.400000e+01 0.000000e+00
      vertex 6.600000e+01 6.400000e+01 0.000000e+00
    endloop
  endfacet
  facet normal 0.000000e+00 0.000000e+00 -1.000000e+00
    outer loop
      vertex -6.600000e+01 6.400000e+01 0.000000e+00
      vertex -5.400000e+01 3.400000e+01 0.000000e+00
      vertex -6.600000e+01 -6.400000e+01 0.000000e+00
    endloop
  endfacet
  facet normal 0.000000e+00 -1.000000e+00 0.000000e+00
    outer loop
      vertex -6.600000e+01 -6.400000e+01 4.500000e+01
      vertex -5.200000e+01 -6.400000e+01 2.000000e+00
      vertex -5.200000e+01 -6.400000e+01 4.500000e+01
    endloop
  endfacet
  facet normal 0.000000e+00 -1.000000e+00 0.000000e+00
    outer loop
      vertex -5.200000e+01 -6.400000e+01 2.000000e+00
      vertex -6.600000e+01 -6.400000e+01 0.000000e+00
      vertex 3.200000e+01 -6.400000e+01 2.000000e+00
    endloop
  endfacet
  facet normal 0.000000e+00 -1.000000e+00 0.000000e+00
    outer loop
      vertex -6.600000e+01 -6.400000e+01 0.000000e+00
      vertex -5.200000e+01 -6.400000e+01 2.000000e+00
      vertex -6.600000e+01 -6.400000e+01 4.500000e+01
    endloop
  endfacet
  facet normal 0.000000e+00 -1.000000e+00 0.000000e+00
    outer loop
      vertex 3.200000e+01 -6.400000e+01 4.500000e+01
      vertex 4.600000e+01 -6.400000e+01 2.099998e+00
      vertex 4.600000e+01 -6.400000e+01 4.500000e+01
    endloop
  endfacet
  facet normal 0.000000e+00 -1.000000e+00 0.000000e+00
    outer loop
      vertex 3.200000e+01 -6.400000e+01 2.000000e+00
      vertex 4.600000e+01 -6.400000e+01 2.099998e+00
      vertex 3.200000e+01 -6.400000e+01 4.500000e+01
    endloop
  endfacet
  facet normal 0.000000e+00 -1.000000e+00 0.000000e+00
    outer loop
      vertex 6.600000e+01 -6.400000e+01 0.000000e+00
      vertex 4.600000e+01 -6.400000e+01 2.099998e+00
      vertex 3.200000e+01 -6.400000e+01 2.000000e+00
    endloop
  endfacet
  facet normal 0.000000e+00 -1.000000e+00 0.000000e+00
    outer loop
      vertex 6.600000e+01 -6.400000e+01 0.000000e+00
      vertex 3.200000e+01 -6.400000e+01 2.000000e+00
      vertex -6.600000e+01 -6.400000e+01 0.000000e+00
    endloop
  endfacet
  facet normal 0.000000e+00 -1.000000e+00 0.000000e+00
    outer loop
      vertex 4.600000e+01 -6.400000e+01 2.099998e+00
      vertex 6.600000e+01 -6.400000e+01 0.000000e+00
      vertex 6.600000e+01 -6.400000e+01 2.099998e+00
    endloop
  endfacet
  facet normal 0.000000e+00 1.000000e+00 0.000000e+00
    outer loop
      vertex 6.600000e+01 6.400000e+01 0.000000e+00
      vertex -6.600000e+01 6.400000e+01 2.099998e+00
      vertex 6.600000e+01 6.400000e+01 2.099998e+00
    endloop
  endfacet
  facet normal 0.000000e+00 1.000000e+00 0.000000e+00
    outer loop
      vertex -6.600000e+01 6.400000e+01 2.099998e+00
      vertex 6.600000e+01 6.400000e+01 0.000000e+00
      vertex -6.600000e+01 6.400000e+01 0.000000e+00
    endloop
  endfacet
  facet normal 0.000000e+00 0.000000e+00 1.000000e+00
    outer loop
      vertex -6.400000e+01 -5.000000e+01 4.500000e+01
      vertex -6.600000e+01 -5.000000e+01 4.500000e+01
      vertex -6.400000e+01 -6.200000e+01 4.500000e+01
    endloop
  endfacet
  facet normal 0.000000e+00 0.000000e+00 1.000000e+00
    outer loop
      vertex -6.400000e+01 -6.200000e+01 4.500000e+01
      vertex -5.200000e+01 -6.400000e+01 4.500000e+01
      vertex -5.200000e+01 -6.200000e+01 4.500000e+01
    endloop
  endfacet
  facet normal 0.000000e+00 0.000000e+00 1.000000e+00
    outer loop
      vertex -6.400000e+01 -6.200000e+01 4.500000e+01
      vertex -6.600000e+01 -6.400000e+01 4.500000e+01
      vertex -5.200000e+01 -6.400000e+01 4.500000e+01
    endloop
  endfacet
  facet normal 0.000000e+00 0.000000e+00 1.000000e+00
    outer loop
      vertex -6.600000e+01 -6.400000e+01 4.500000e+01
      vertex -6.400000e+01 -6.200000e+01 4.500000e+01
      vertex -6.600000e+01 -5.000000e+01 4.500000e+01
    endloop
  endfacet
  facet normal 0.000000e+00 0.000000e+00 1.000000e+00
    outer loop
      vertex 4.400000e+01 -6.200000e+01 4.500000e+01
      vertex 4.600000e+01 -5.000000e+01 4.500000e+01
      vertex 4.400000e+01 -5.000000e+01 4.500000e+01
    endloop
  endfacet
  facet normal 0.000000e+00 0.000000e+00 1.000000e+00
    outer loop
      vertex 4.600000e+01 -5.000000e+01 4.500000e+01
      vertex 4.400000e+01 -6.200000e+01 4.500000e+01
      vertex 4.600000e+01 -6.400000e+01 4.500000e+01
    endloop
  endfacet
  facet normal 0.000000e+00 0.000000e+00 1.000000e+00
    outer loop
      vertex 3.200000e+01 -6.400000e+01 4.500000e+01
      vertex 4.400000e+01 -6.200000e+01 4.500000e+01
      vertex 3.200000e+01 -6.200000e+01 4.500000e+01
    endloop
  endfacet
  facet normal 0.000000e+00 0.000000e+00 1.000000e+00
    outer loop
      vertex 4.400000e+01 -6.200000e+01 4.500000e+01
      vertex 3.200000e+01 -6.400000e+01 4.500000e+01
      vertex 4.600000e+01 -6.400000e+01 4.500000e+01
    endloop
  endfacet
  facet normal 0.000000e+00 0.000000e+00 1.000000e+00
    outer loop
      vertex 4.600000e+01 4.600000e+01 4.500000e+01
      vertex 4.400000e+01 4.400000e+01 4.500000e+01
      vertex 4.600000e+01 3.200000e+01 4.500000e+01
    endloop
  endfacet
  facet normal 0.000000e+00 0.000000e+00 1.000000e+00
    outer loop
      vertex 3.200000e+01 4.600000e+01 4.500000e+01
      vertex 4.400000e+01 4.400000e+01 4.500000e+01
      vertex 4.600000e+01 4.600000e+01 4.500000e+01
    endloop
  endfacet
  facet normal 0.000000e+00 0.000000e+00 1.000000e+00
    outer loop
      vertex 4.400000e+01 4.400000e+01 4.500000e+01
      vertex 3.200000e+01 4.600000e+01 4.500000e+01
      vertex 3.200000e+01 4.400000e+01 4.500000e+01
    endloop
  endfacet
  facet normal 0.000000e+00 0.000000e+00 1.000000e+00
    outer loop
      vertex 4.600000e+01 3.200000e+01 4.500000e+01
      vertex 4.400000e+01 4.400000e+01 4.500000e+01
      vertex 4.400000e+01 3.200000e+01 4.500000e+01
    endloop
  endfacet
  facet normal 0.000000e+00 0.000000e+00 1.000000e+00
    outer loop
      vertex -5.200000e+01 4.600000e+01 4.500000e+01
      vertex -6.400000e+01 4.400000e+01 4.500000e+01
      vertex -5.200000e+01 4.400000e+01 4.500000e+01
    endloop
  endfacet
  facet normal 0.000000e+00 0.000000e+00 1.000000e+00
    outer loop
      vertex -6.600000e+01 4.600000e+01 4.500000e+01
      vertex -6.400000e+01 4.400000e+01 4.500000e+01
      vertex -5.200000e+01 4.600000e+01 4.500000e+01
    endloop
  endfacet
  facet normal 0.000000e+00 0.000000e+00 1.000000e+00
    outer loop
      vertex -6.600000e+01 3.200000e+01 4.500000e+01
      vertex -6.400000e+01 4.400000e+01 4.500000e+01
      vertex -6.600000e+01 4.600000e+01 4.500000e+01
    endloop
  endfacet
  facet normal 0.000000e+00 0.000000e+00 1.000000e+00
    outer loop
      vertex -6.400000e+01 4.400000e+01 4.500000e+01
      vertex -6.600000e+01 3.200000e+01 4.500000e+01
      vertex -6.400000e+01 3.200000e+01 4.500000e+01
    endloop
  endfacet
  facet normal 1.000000e+00 0.000000e+00 0.000000e+00
    outer loop
      vertex 4.600000e+01 -6.400000e+01 4.500000e+01
      vertex 4.600000e+01 -5.000000e+01 2.099998e+00
      vertex 4.600000e+01 -5.000000e+01 4.500000e+01
    endloop
  endfacet
  facet normal 1.000000e+00 0.000000e+00 0.000000e+00
    outer loop
      vertex 4.600000e+01 -5.000000e+01 2.099998e+00
      vertex 4.600000e+01 -6.400000e+01 4.500000e+01
      vertex 4.600000e+01 -6.400000e+01 2.099998e+00
    endloop
  endfacet
  facet normal 1.000000e+00 0.000000e+00 0.000000e+00
    outer loop
      vertex 4.600000e+01 3.200000e+01 4.500000e+01
      vertex 4.600000e+01 4.600000e+01 2.099998e+00
      vertex 4.600000e+01 4.600000e+01 4.500000e+01
    endloop
  endfacet
  facet normal 1.000000e+00 0.000000e+00 0.000000e+00
    outer loop
      vertex 4.600000e+01 4.600000e+01 2.099998e+00
      vertex 4.600000e+01 3.200000e+01 4.500000e+01
      vertex 4.600000e+01 3.200000e+01 2.099998e+00
    endloop
  endfacet
  facet normal 0.000000e+00 1.000000e+00 0.000000e+00
    outer loop
      vertex 4.600000e+01 4.600000e+01 2.099998e+00
      vertex 3.200000e+01 4.600000e+01 4.500000e+01
      vertex 4.600000e+01 4.600000e+01 4.500000e+01
    endloop
  endfacet
  facet normal 0.000000e+00 1.000000e+00 0.000000e+00
    outer loop
      vertex 3.200000e+01 4.600000e+01 4.500000e+01
      vertex 4.600000e+01 4.600000e+01 2.099998e+00
      vertex 3.200000e+01 4.600000e+01 2.099998e+00
    endloop
  endfacet
  facet normal 0.000000e+00 1.000000e+00 0.000000e+00
    outer loop
      vertex -5.200000e+01 4.600000e+01 2.099998e+00
      vertex -6.600000e+01 4.600000e+01 4.500000e+01
      vertex -5.200000e+01 4.600000e+01 4.500000e+01
    endloop
  endfacet
  facet normal 0.000000e+00 1.000000e+00 0.000000e+00
    outer loop
      vertex -6.600000e+01 4.600000e+01 4.500000e+01
      vertex -5.200000e+01 4.600000e+01 2.099998e+00
      vertex -6.600000e+01 4.600000e+01 2.099998e+00
    endloop
  endfacet
  facet normal 1.000000e+00 0.000000e+00 0.000000e+00
    outer loop
      vertex -6.400000e+01 3.200000e+01 4.500000e+01
      vertex -6.400000e+01 4.400000e+01 4.300000e+01
      vertex -6.400000e+01 4.400000e+01 4.500000e+01
    endloop
  endfacet
  facet normal 1.000000e+00 0.000000e+00 0.000000e+00
    outer loop
      vertex -6.400000e+01 4.400000e+01 4.300000e+01
      vertex -6.400000e+01 3.200000e+01 4.500000e+01
      vertex -6.400000e+01 3.200000e+01 4.300000e+01
    endloop
  endfacet
  facet normal 1.000000e+00 0.000000e+00 0.000000e+00
    outer loop
      vertex -6.400000e+01 -6.200000e+01 4.500000e+01
      vertex -6.400000e+01 -5.000000e+01 4.300000e+01
      vertex -6.400000e+01 -5.000000e+01 4.500000e+01
    endloop
  endfacet
  facet normal 1.000000e+00 0.000000e+00 0.000000e+00
    outer loop
      vertex -6.400000e+01 -5.000000e+01 4.300000e+01
      vertex -6.400000e+01 -6.200000e+01 4.500000e+01
      vertex -6.400000e+01 -6.200000e+01 4.300000e+01
    endloop
  endfacet
  facet normal -1.000000e+00 0.000000e+00 0.000000e+00
    outer loop
      vertex 4.400000e+01 -6.200000e+01 4.300000e+01
      vertex 4.400000e+01 -5.000000e+01 4.500000e+01
      vertex 4.400000e+01 -5.000000e+01 4.300000e+01
    endloop
  endfacet
  facet normal -1.000000e+00 0.000000e+00 0.000000e+00
    outer loop
      vertex 4.400000e+01 -5.000000e+01 4.500000e+01
      vertex 4.400000e+01 -6.200000e+01 4.300000e+01
      vertex 4.400000e+01 -6.200000e+01 4.500000e+01
    endloop
  endfacet
  facet normal -1.000000e+00 0.000000e+00 0.000000e+00
    outer loop
      vertex 4.400000e+01 3.200000e+01 4.300000e+01
      vertex 4.400000e+01 4.400000e+01 4.500000e+01
      vertex 4.400000e+01 4.400000e+01 4.300000e+01
    endloop
  endfacet
  facet normal -1.000000e+00 0.000000e+00 0.000000e+00
    outer loop
      vertex 4.400000e+01 4.400000e+01 4.500000e+01
      vertex 4.400000e+01 3.200000e+01 4.300000e+01
      vertex 4.400000e+01 3.200000e+01 4.500000e+01
    endloop
  endfacet
  facet normal 0.000000e+00 0.000000e+00 1.000000e+00
    outer loop
      vertex -5.200000e+01 4.400000e+01 4.300000e+01
      vertex -6.200000e+01 4.200000e+01 4.300000e+01
      vertex -5.200000e+01 4.200000e+01 4.300000e+01
    endloop
  endfacet
  facet normal 0.000000e+00 0.000000e+00 1.000000e+00
    outer loop
      vertex -6.400000e+01 4.400000e+01 4.300000e+01
      vertex -6.200000e+01 4.200000e+01 4.300000e+01
      vertex -5.200000e+01 4.400000e+01 4.300000e+01
    endloop
  endfacet
  facet normal 0.000000e+00 0.000000e+00 1.000000e+00
    outer loop
      vertex -6.400000e+01 3.200000e+01 4.300000e+01
      vertex -6.200000e+01 4.200000e+01 4.300000e+01
      vertex -6.400000e+01 4.400000e+01 4.300000e+01
    endloop
  endfacet
  facet normal 0.000000e+00 0.000000e+00 1.000000e+00
    outer loop
      vertex -6.200000e+01 4.200000e+01 4.300000e+01
      vertex -6.400000e+01 3.200000e+01 4.300000e+01
      vertex -6.200000e+01 3.200000e+01 4.300000e+01
    endloop
  endfacet
  facet normal 0.000000e+00 0.000000e+00 1.000000e+00
    outer loop
      vertex -6.200000e+01 -5.000000e+01 4.300000e+01
      vertex -6.400000e+01 -5.000000e+01 4.300000e+01
      vertex -6.200000e+01 -6.000000e+01 4.300000e+01
    endloop
  endfacet
  facet normal 0.000000e+00 0.000000e+00 1.000000e+00
    outer loop
      vertex -6.200000e+01 -6.000000e+01 4.300000e+01
      vertex -5.200000e+01 -6.200000e+01 4.300000e+01
      vertex -5.200000e+01 -6.000000e+01 4.300000e+01
    endloop
  endfacet
  facet normal 0.000000e+00 0.000000e+00 1.000000e+00
    outer loop
      vertex -6.200000e+01 -6.000000e+01 4.300000e+01
      vertex -6.400000e+01 -6.200000e+01 4.300000e+01
      vertex -5.200000e+01 -6.200000e+01 4.300000e+01
    endloop
  endfacet
  facet normal 0.000000e+00 0.000000e+00 1.000000e+00
    outer loop
      vertex -6.400000e+01 -6.200000e+01 4.300000e+01
      vertex -6.200000e+01 -6.000000e+01 4.300000e+01
      vertex -6.400000e+01 -5.000000e+01 4.300000e+01
    endloop
  endfacet
  facet normal 0.000000e+00 0.000000e+00 1.000000e+00
    outer loop
      vertex 4.200000e+01 -6.000000e+01 4.300000e+01
      vertex 4.400000e+01 -5.000000e+01 4.300000e+01
      vertex 4.200000e+01 -5.000000e+01 4.300000e+01
    endloop
  endfacet
  facet normal 0.000000e+00 0.000000e+00 1.000000e+00
    outer loop
      vertex 4.400000e+01 -5.000000e+01 4.300000e+01
      vertex 4.200000e+01 -6.000000e+01 4.300000e+01
      vertex 4.400000e+01 -6.200000e+01 4.300000e+01
    endloop
  endfacet
  facet normal 0.000000e+00 0.000000e+00 1.000000e+00
    outer loop
      vertex 3.200000e+01 -6.200000e+01 4.300000e+01
      vertex 4.200000e+01 -6.000000e+01 4.300000e+01
      vertex 3.200000e+01 -6.000000e+01 4.300000e+01
    endloop
  endfacet
  facet normal 0.000000e+00 0.000000e+00 1.000000e+00
    outer loop
      vertex 4.200000e+01 -6.000000e+01 4.300000e+01
      vertex 3.200000e+01 -6.200000e+01 4.300000e+01
      vertex 4.400000e+01 -6.200000e+01 4.300000e+01
    endloop
  endfacet
  facet normal 0.000000e+00 0.000000e+00 1.000000e+00
    outer loop
      vertex 4.400000e+01 4.400000e+01 4.300000e+01
      vertex 4.200000e+01 4.200000e+01 4.300000e+01
      vertex 4.400000e+01 3.200000e+01 4.300000e+01
    endloop
  endfacet
  facet normal 0.000000e+00 0.000000e+00 1.000000e+00
    outer loop
      vertex 3.200000e+01 4.400000e+01 4.300000e+01
      vertex 4.200000e+01 4.200000e+01 4.300000e+01
      vertex 4.400000e+01 4.400000e+01 4.300000e+01
    endloop
  endfacet
  facet normal 0.000000e+00 0.000000e+00 1.000000e+00
    outer loop
      vertex 4.200000e+01 4.200000e+01 4.300000e+01
      vertex 3.200000e+01 4.400000e+01 4.300000e+01
      vertex 3.200000e+01 4.200000e+01 4.300000e+01
    endloop
  endfacet
  facet normal 0.000000e+00 0.000000e+00 1.000000e+00
    outer loop
      vertex 4.400000e+01 3.200000e+01 4.300000e+01
      vertex 4.200000e+01 4.200000e+01 4.300000e+01
      vertex 4.200000e+01 3.200000e+01 4.300000e+01
    endloop
  endfacet
  facet normal 0.000000e+00 1.000000e+00 0.000000e+00
    outer loop
      vertex -5.200000e+01 -6.200000e+01 4.300000e+01
      vertex -6.400000e+01 -6.200000e+01 4.500000e+01
      vertex -5.200000e+01 -6.200000e+01 4.500000e+01
    endloop
  endfacet
  facet normal 0.000000e+00 1.000000e+00 0.000000e+00
    outer loop
      vertex -6.400000e+01 -6.200000e+01 4.500000e+01
      vertex -5.200000e+01 -6.200000e+01 4.300000e+01
      vertex -6.400000e+01 -6.200000e+01 4.300000e+01
    endloop
  endfacet
  facet normal 0.000000e+00 1.000000e+00 0.000000e+00
    outer loop
      vertex 4.400000e+01 -6.200000e+01 4.300000e+01
      vertex 3.200000e+01 -6.200000e+01 4.500000e+01
      vertex 4.400000e+01 -6.200000e+01 4.500000e+01
    endloop
  endfacet
  facet normal 0.000000e+00 1.000000e+00 0.000000e+00
    outer loop
      vertex 3.200000e+01 -6.200000e+01 4.500000e+01
      vertex 4.400000e+01 -6.200000e+01 4.300000e+01
      vertex 3.200000e+01 -6.200000e+01 4.300000e+01
    endloop
  endfacet
  facet normal 0.000000e+00 -1.000000e+00 0.000000e+00
    outer loop
      vertex -6.400000e+01 4.400000e+01 4.300000e+01
      vertex -5.200000e+01 4.400000e+01 4.500000e+01
      vertex -6.400000e+01 4.400000e+01 4.500000e+01
    endloop
  endfacet
  facet normal 0.000000e+00 -1.000000e+00 0.000000e+00
    outer loop
      vertex -5.200000e+01 4.400000e+01 4.500000e+01
      vertex -6.400000e+01 4.400000e+01 4.300000e+01
      vertex -5.200000e+01 4.400000e+01 4.300000e+01
    endloop
  endfacet
  facet normal 0.000000e+00 -1.000000e+00 0.000000e+00
    outer loop
      vertex 3.200000e+01 4.400000e+01 4.300000e+01
      vertex 4.400000e+01 4.400000e+01 4.500000e+01
      vertex 3.200000e+01 4.400000e+01 4.500000e+01
    endloop
  endfacet
  facet normal 0.000000e+00 -1.000000e+00 0.000000e+00
    outer loop
      vertex 4.400000e+01 4.400000e+01 4.500000e+01
      vertex 3.200000e+01 4.400000e+01 4.300000e+01
      vertex 4.400000e+01 4.400000e+01 4.300000e+01
    endloop
  endfacet
  facet normal 1.000000e+00 0.000000e+00 0.000000e+00
    outer loop
      vertex -6.200000e+01 3.200000e+01 4.300000e+01
      vertex -6.200000e+01 4.200000e+01 2.000000e+00
      vertex -6.200000e+01 4.200000e+01 4.300000e+01
    endloop
  endfacet
  facet normal 1.000000e+00 0.000000e+00 0.000000e+00
    outer loop
      vertex -6.200000e+01 4.200000e+01 2.000000e+00
      vertex -6.200000e+01 3.200000e+01 4.300000e+01
      vertex -6.200000e+01 3.200000e+01 2.000000e+00
    endloop
  endfacet
  facet normal 1.000000e+00 0.000000e+00 0.000000e+00
    outer loop
      vertex -6.200000e+01 -6.000000e+01 4.300000e+01
      vertex -6.200000e+01 -5.000000e+01 2.000000e+00
      vertex -6.200000e+01 -5.000000e+01 4.300000e+01
    endloop
  endfacet
  facet normal 1.000000e+00 0.000000e+00 0.000000e+00
    outer loop
      vertex -6.200000e+01 -5.000000e+01 2.000000e+00
      vertex -6.200000e+01 -6.000000e+01 4.300000e+01
      vertex -6.200000e+01 -6.000000e+01 2.000000e+00
    endloop
  endfacet
  facet normal -1.000000e+00 0.000000e+00 0.000000e+00
    outer loop
      vertex 4.200000e+01 -6.000000e+01 2.000000e+00
      vertex 4.200000e+01 -5.000000e+01 4.300000e+01
      vertex 4.200000e+01 -5.000000e+01 2.000000e+00
    endloop
  endfacet
  facet normal -1.000000e+00 0.000000e+00 0.000000e+00
    outer loop
      vertex 4.200000e+01 -5.000000e+01 4.300000e+01
      vertex 4.200000e+01 -6.000000e+01 2.000000e+00
      vertex 4.200000e+01 -6.000000e+01 4.300000e+01
    endloop
  endfacet
  facet normal -1.000000e+00 0.000000e+00 0.000000e+00
    outer loop
      vertex 4.200000e+01 3.200000e+01 2.000000e+00
      vertex 4.200000e+01 4.200000e+01 4.300000e+01
      vertex 4.200000e+01 4.200000e+01 2.000000e+00
    endloop
  endfacet
  facet normal -1.000000e+00 0.000000e+00 0.000000e+00
    outer loop
      vertex 4.200000e+01 4.200000e+01 4.300000e+01
      vertex 4.200000e+01 3.200000e+01 2.000000e+00
      vertex 4.200000e+01 3.200000e+01 4.300000e+01
    endloop
  endfacet
  facet normal 0.000000e+00 0.000000e+00 1.000000e+00
    outer loop
      vertex 3.200000e+01 4.700000e+01 2.000000e+00
      vertex -5.200000e+01 4.700000e+01 2.000000e+00
      vertex 3.200000e+01 4.200000e+01 2.000000e+00
    endloop
  endfacet
  facet normal 0.000000e+00 0.000000e+00 1.000000e+00
    outer loop
      vertex 3.400000e+01 3.400000e+01 2.000000e+00
      vertex 4.200000e+01 3.200000e+01 2.000000e+00
      vertex 4.200000e+01 4.200000e+01 2.000000e+00
    endloop
  endfacet
  facet normal 0.000000e+00 0.000000e+00 1.000000e+00
    outer loop
      vertex 4.200000e+01 3.200000e+01 2.000000e+00
      vertex 3.400000e+01 3.400000e+01 2.000000e+00
      vertex 4.200000e+01 -5.000000e+01 2.000000e+00
    endloop
  endfacet
  facet normal 0.000000e+00 0.000000e+00 1.000000e+00
    outer loop
      vertex 3.400000e+01 -5.200000e+01 2.000000e+00
      vertex 4.200000e+01 -5.000000e+01 2.000000e+00
      vertex 3.400000e+01 3.400000e+01 2.000000e+00
    endloop
  endfacet
  facet normal 0.000000e+00 0.000000e+00 1.000000e+00
    outer loop
      vertex 3.200000e+01 4.200000e+01 2.000000e+00
      vertex 3.400000e+01 3.400000e+01 2.000000e+00
      vertex 4.200000e+01 4.200000e+01 2.000000e+00
    endloop
  endfacet
  facet normal 0.000000e+00 0.000000e+00 1.000000e+00
    outer loop
      vertex -5.200000e+01 4.200000e+01 2.000000e+00
      vertex 3.200000e+01 4.200000e+01 2.000000e+00
      vertex -5.200000e+01 4.700000e+01 2.000000e+00
    endloop
  endfacet
  facet normal 0.000000e+00 0.000000e+00 1.000000e+00
    outer loop
      vertex 3.200000e+01 4.200000e+01 2.000000e+00
      vertex -5.200000e+01 4.200000e+01 2.000000e+00
      vertex 3.400000e+01 3.400000e+01 2.000000e+00
    endloop
  endfacet
  facet normal 0.000000e+00 0.000000e+00 1.000000e+00
    outer loop
      vertex -5.200000e+01 4.200000e+01 2.000000e+00
      vertex -5.400000e+01 3.400000e+01 2.000000e+00
      vertex 3.400000e+01 3.400000e+01 2.000000e+00
    endloop
  endfacet
  facet normal 0.000000e+00 0.000000e+00 1.000000e+00
    outer loop
      vertex -6.200000e+01 3.200000e+01 2.000000e+00
      vertex -5.400000e+01 3.400000e+01 2.000000e+00
      vertex -6.200000e+01 4.200000e+01 2.000000e+00
    endloop
  endfacet
  facet normal 0.000000e+00 0.000000e+00 1.000000e+00
    outer loop
      vertex -6.200000e+01 4.200000e+01 2.000000e+00
      vertex -5.400000e+01 3.400000e+01 2.000000e+00
      vertex -5.200000e+01 4.200000e+01 2.000000e+00
    endloop
  endfacet
  facet normal 0.000000e+00 0.000000e+00 1.000000e+00
    outer loop
      vertex 4.200000e+01 3.200000e+01 2.000000e+00
      vertex 4.700000e+01 -5.000000e+01 2.000000e+00
      vertex 4.700000e+01 3.200000e+01 2.000000e+00
    endloop
  endfacet
  facet normal 0.000000e+00 0.000000e+00 1.000000e+00
    outer loop
      vertex 4.700000e+01 -5.000000e+01 2.000000e+00
      vertex 4.200000e+01 3.200000e+01 2.000000e+00
      vertex 4.200000e+01 -5.000000e+01 2.000000e+00
    endloop
  endfacet
  facet normal 0.000000e+00 0.000000e+00 1.000000e+00
    outer loop
      vertex 4.200000e+01 -5.000000e+01 2.000000e+00
      vertex 3.400000e+01 -5.200000e+01 2.000000e+00
      vertex 4.200000e+01 -6.000000e+01 2.000000e+00
    endloop
  endfacet
  facet normal 0.000000e+00 0.000000e+00 1.000000e+00
    outer loop
      vertex 3.400000e+01 -5.200000e+01 2.000000e+00
      vertex 3.200000e+01 -6.000000e+01 2.000000e+00
      vertex 4.200000e+01 -6.000000e+01 2.000000e+00
    endloop
  endfacet
  facet normal 0.000000e+00 0.000000e+00 1.000000e+00
    outer loop
      vertex 3.200000e+01 -6.000000e+01 2.000000e+00
      vertex -5.200000e+01 -6.000000e+01 2.000000e+00
      vertex 3.200000e+01 -6.400000e+01 2.000000e+00
    endloop
  endfacet
  facet normal 0.000000e+00 0.000000e+00 1.000000e+00
    outer loop
      vertex 3.400000e+01 -5.200000e+01 2.000000e+00
      vertex -5.200000e+01 -6.000000e+01 2.000000e+00
      vertex 3.200000e+01 -6.000000e+01 2.000000e+00
    endloop
  endfacet
  facet normal 0.000000e+00 0.000000e+00 1.000000e+00
    outer loop
      vertex -5.400000e+01 -5.200000e+01 2.000000e+00
      vertex -5.200000e+01 -6.000000e+01 2.000000e+00
      vertex 3.400000e+01 -5.200000e+01 2.000000e+00
    endloop
  endfacet
  facet normal 0.000000e+00 0.000000e+00 1.000000e+00
    outer loop
      vertex -5.400000e+01 3.400000e+01 2.000000e+00
      vertex -6.200000e+01 3.200000e+01 2.000000e+00
      vertex -5.400000e+01 -5.200000e+01 2.000000e+00
    endloop
  endfacet
  facet normal 0.000000e+00 0.000000e+00 1.000000e+00
    outer loop
      vertex -6.200000e+01 -5.000000e+01 2.000000e+00
      vertex -5.400000e+01 -5.200000e+01 2.000000e+00
      vertex -6.200000e+01 3.200000e+01 2.000000e+00
    endloop
  endfacet
  facet normal 0.000000e+00 0.000000e+00 1.000000e+00
    outer loop
      vertex -6.200000e+01 -6.000000e+01 2.000000e+00
      vertex -5.400000e+01 -5.200000e+01 2.000000e+00
      vertex -6.200000e+01 -5.000000e+01 2.000000e+00
    endloop
  endfacet
  facet normal 0.000000e+00 0.000000e+00 1.000000e+00
    outer loop
      vertex -5.400000e+01 -5.200000e+01 2.000000e+00
      vertex -6.200000e+01 -6.000000e+01 2.000000e+00
      vertex -5.200000e+01 -6.000000e+01 2.000000e+00
    endloop
  endfacet
  facet normal 0.000000e+00 0.000000e+00 1.000000e+00
    outer loop
      vertex -6.600000e+01 3.200000e+01 2.000000e+00
      vertex -6.200000e+01 -5.000000e+01 2.000000e+00
      vertex -6.200000e+01 3.200000e+01 2.000000e+00
    endloop
  endfacet
  facet normal 0.000000e+00 0.000000e+00 1.000000e+00
    outer loop
      vertex -6.200000e+01 -5.000000e+01 2.000000e+00
      vertex -6.600000e+01 3.200000e+01 2.000000e+00
      vertex -6.600000e+01 -5.000000e+01 2.000000e+00
    endloop
  endfacet
  facet normal 0.000000e+00 0.000000e+00 1.000000e+00
    outer loop
      vertex 3.200000e+01 -6.400000e+01 2.000000e+00
      vertex -5.200000e+01 -6.000000e+01 2.000000e+00
      vertex -5.200000e+01 -6.400000e+01 2.000000e+00
    endloop
  endfacet
  facet normal 0.000000e+00 1.000000e+00 0.000000e+00
    outer loop
      vertex -5.200000e+01 -6.000000e+01 2.000000e+00
      vertex -6.200000e+01 -6.000000e+01 4.300000e+01
      vertex -5.200000e+01 -6.000000e+01 4.300000e+01
    endloop
  endfacet
  facet normal 0.000000e+00 1.000000e+00 0.000000e+00
    outer loop
      vertex -6.200000e+01 -6.000000e+01 4.300000e+01
      vertex -5.200000e+01 -6.000000e+01 2.000000e+00
      vertex -6.200000e+01 -6.000000e+01 2.000000e+00
    endloop
  endfacet
  facet normal 0.000000e+00 1.000000e+00 0.000000e+00
    outer loop
      vertex 4.200000e+01 -6.000000e+01 2.000000e+00
      vertex 3.200000e+01 -6.000000e+01 4.300000e+01
      vertex 4.200000e+01 -6.000000e+01 4.300000e+01
    endloop
  endfacet
  facet normal 0.000000e+00 1.000000e+00 0.000000e+00
    outer loop
      vertex 3.200000e+01 -6.000000e+01 4.300000e+01
      vertex 4.200000e+01 -6.000000e+01 2.000000e+00
      vertex 3.200000e+01 -6.000000e+01 2.000000e+00
    endloop
  endfacet
  facet normal 0.000000e+00 -1.000000e+00 0.000000e+00
    outer loop
      vertex -6.200000e+01 4.200000e+01 2.000000e+00
      vertex -5.200000e+01 4.200000e+01 4.300000e+01
      vertex -6.200000e+01 4.200000e+01 4.300000e+01
    endloop
  endfacet
  facet normal 0.000000e+00 -1.000000e+00 0.000000e+00
    outer loop
      vertex -5.200000e+01 4.200000e+01 4.300000e+01
      vertex -6.200000e+01 4.200000e+01 2.000000e+00
      vertex -5.200000e+01 4.200000e+01 2.000000e+00
    endloop
  endfacet
  facet normal 0.000000e+00 -1.000000e+00 0.000000e+00
    outer loop
      vertex 3.200000e+01 4.200000e+01 2.000000e+00
      vertex 4.200000e+01 4.200000e+01 4.300000e+01
      vertex 3.200000e+01 4.200000e+01 4.300000e+01
    endloop
  endfacet
  facet normal 0.000000e+00 -1.000000e+00 0.000000e+00
    outer loop
      vertex 4.200000e+01 4.200000e+01 4.300000e+01
      vertex 3.200000e+01 4.200000e+01 2.000000e+00
      vertex 4.200000e+01 4.200000e+01 2.000000e+00
    endloop
  endfacet
  facet normal 0.000000e+00 -1.000000e+00 0.000000e+00
    outer loop
      vertex -6.600000e+01 3.200000e+01 4.500000e+01
      vertex -6.400000e+01 3.200000e+01 4.300000e+01
      vertex -6.400000e+01 3.200000e+01 4.500000e+01
    endloop
  endfacet
  facet normal 0.000000e+00 -1.000000e+00 0.000000e+00
    outer loop
      vertex -6.600000e+01 3.200000e+01 2.000000e+00
      vertex -6.400000e+01 3.200000e+01 4.300000e+01
      vertex -6.600000e+01 3.200000e+01 4.500000e+01
    endloop
  endfacet
  facet normal 0.000000e+00 -1.000000e+00 0.000000e+00
    outer loop
      vertex -6.200000e+01 3.200000e+01 2.000000e+00
      vertex -6.400000e+01 3.200000e+01 4.300000e+01
      vertex -6.600000e+01 3.200000e+01 2.000000e+00
    endloop
  endfacet
  facet normal 0.000000e+00 -1.000000e+00 0.000000e+00
    outer loop
      vertex -6.400000e+01 3.200000e+01 4.300000e+01
      vertex -6.200000e+01 3.200000e+01 2.000000e+00
      vertex -6.200000e+01 3.200000e+01 4.300000e+01
    endloop
  endfacet
  facet normal 0.000000e+00 1.000000e+00 0.000000e+00
    outer loop
      vertex -6.200000e+01 -5.000000e+01 4.300000e+01
      vertex -6.200000e+01 -5.000000e+01 2.000000e+00
      vertex -6.400000e+01 -5.000000e+01 4.300000e+01
    endloop
  endfacet
  facet normal 0.000000e+00 1.000000e+00 0.000000e+00
    outer loop
      vertex -6.400000e+01 -5.000000e+01 4.300000e+01
      vertex -6.600000e+01 -5.000000e+01 4.500000e+01
      vertex -6.400000e+01 -5.000000e+01 4.500000e+01
    endloop
  endfacet
  facet normal 0.000000e+00 1.000000e+00 0.000000e+00
    outer loop
      vertex -6.600000e+01 -5.000000e+01 2.000000e+00
      vertex -6.400000e+01 -5.000000e+01 4.300000e+01
      vertex -6.200000e+01 -5.000000e+01 2.000000e+00
    endloop
  endfacet
  facet normal 0.000000e+00 1.000000e+00 0.000000e+00
    outer loop
      vertex -6.400000e+01 -5.000000e+01 4.300000e+01
      vertex -6.600000e+01 -5.000000e+01 2.000000e+00
      vertex -6.600000e+01 -5.000000e+01 4.500000e+01
    endloop
  endfacet
  facet normal 1.000000e+00 0.000000e+00 0.000000e+00
    outer loop
      vertex -5.200000e+01 -6.200000e+01 4.500000e+01
      vertex -5.200000e+01 -6.400000e+01 4.500000e+01
      vertex -5.200000e+01 -6.200000e+01 4.300000e+01
    endloop
  endfacet
  facet normal 1.000000e+00 0.000000e+00 0.000000e+00
    outer loop
      vertex -5.200000e+01 -6.200000e+01 4.300000e+01
      vertex -5.200000e+01 -6.000000e+01 2.000000e+00
      vertex -5.200000e+01 -6.000000e+01 4.300000e+01
    endloop
  endfacet
  facet normal 1.000000e+00 0.000000e+00 0.000000e+00
    outer loop
      vertex -5.200000e+01 -6.400000e+01 2.000000e+00
      vertex -5.200000e+01 -6.200000e+01 4.300000e+01
      vertex -5.200000e+01 -6.400000e+01 4.500000e+01
    endloop
  endfacet
  facet normal 1.000000e+00 0.000000e+00 0.000000e+00
    outer loop
      vertex -5.200000e+01 -6.200000e+01 4.300000e+01
      vertex -5.200000e+01 -6.400000e+01 2.000000e+00
      vertex -5.200000e+01 -6.000000e+01 2.000000e+00
    endloop
  endfacet
  facet normal -1.000000e+00 0.000000e+00 0.000000e+00
    outer loop
      vertex 3.200000e+01 -6.000000e+01 2.000000e+00
      vertex 3.200000e+01 -6.200000e+01 4.300000e+01
      vertex 3.200000e+01 -6.000000e+01 4.300000e+01
    endloop
  endfacet
  facet normal -1.000000e+00 0.000000e+00 0.000000e+00
    outer loop
      vertex 3.200000e+01 -6.400000e+01 2.000000e+00
      vertex 3.200000e+01 -6.200000e+01 4.300000e+01
      vertex 3.200000e+01 -6.000000e+01 2.000000e+00
    endloop
  endfacet
  facet normal -1.000000e+00 0.000000e+00 0.000000e+00
    outer loop
      vertex 3.200000e+01 -6.400000e+01 4.500000e+01
      vertex 3.200000e+01 -6.200000e+01 4.300000e+01
      vertex 3.200000e+01 -6.400000e+01 2.000000e+00
    endloop
  endfacet
  facet normal -1.000000e+00 0.000000e+00 0.000000e+00
    outer loop
      vertex 3.200000e+01 -6.200000e+01 4.300000e+01
      vertex 3.200000e+01 -6.400000e+01 4.500000e+01
      vertex 3.200000e+01 -6.200000e+01 4.500000e+01
    endloop
  endfacet
  facet normal -1.000000e+00 0.000000e+00 0.000000e+00
    outer loop
      vertex 4.700000e+01 -5.000000e+01 2.000000e+00
      vertex 4.700000e+01 3.200000e+01 2.099998e+00
      vertex 4.700000e+01 3.200000e+01 2.000000e+00
    endloop
  endfacet
  facet normal -1.000000e+00 0.000000e+00 0.000000e+00
    outer loop
      vertex 4.700000e+01 3.200000e+01 2.099998e+00
      vertex 4.700000e+01 -5.000000e+01 2.000000e+00
      vertex 4.700000e+01 -5.000000e+01 2.099998e+00
    endloop
  endfacet
  facet normal 0.000000e+00 1.000000e+00 0.000000e+00
    outer loop
      vertex 4.700000e+01 -5.000000e+01 2.099998e+00
      vertex 4.700000e+01 -5.000000e+01 2.000000e+00
      vertex 4.600000e+01 -5.000000e+01 2.099998e+00
    endloop
  endfacet
  facet normal 0.000000e+00 1.000000e+00 0.000000e+00
    outer loop
      vertex 4.600000e+01 -5.000000e+01 4.500000e+01
      vertex 4.400000e+01 -5.000000e+01 4.300000e+01
      vertex 4.400000e+01 -5.000000e+01 4.500000e+01
    endloop
  endfacet
  facet normal 0.000000e+00 1.000000e+00 0.000000e+00
    outer loop
      vertex 4.600000e+01 -5.000000e+01 2.099998e+00
      vertex 4.400000e+01 -5.000000e+01 4.300000e+01
      vertex 4.600000e+01 -5.000000e+01 4.500000e+01
    endloop
  endfacet
  facet normal 0.000000e+00 1.000000e+00 0.000000e+00
    outer loop
      vertex 4.200000e+01 -5.000000e+01 2.000000e+00
      vertex 4.400000e+01 -5.000000e+01 4.300000e+01
      vertex 4.600000e+01 -5.000000e+01 2.099998e+00
    endloop
  endfacet
  facet normal 0.000000e+00 1.000000e+00 0.000000e+00
    outer loop
      vertex 4.400000e+01 -5.000000e+01 4.300000e+01
      vertex 4.200000e+01 -5.000000e+01 2.000000e+00
      vertex 4.200000e+01 -5.000000e+01 4.300000e+01
    endloop
  endfacet
  facet normal 0.000000e+00 1.000000e+00 0.000000e+00
    outer loop
      vertex 4.200000e+01 -5.000000e+01 2.000000e+00
      vertex 4.600000e+01 -5.000000e+01 2.099998e+00
      vertex 4.700000e+01 -5.000000e+01 2.000000e+00
    endloop
  endfacet
  facet normal 0.000000e+00 -1.000000e+00 0.000000e+00
    outer loop
      vertex 4.200000e+01 3.200000e+01 2.000000e+00
      vertex 4.400000e+01 3.200000e+01 4.300000e+01
      vertex 4.200000e+01 3.200000e+01 4.300000e+01
    endloop
  endfacet
  facet normal 0.000000e+00 -1.000000e+00 0.000000e+00
    outer loop
      vertex 4.400000e+01 3.200000e+01 4.300000e+01
      vertex 4.200000e+01 3.200000e+01 2.000000e+00
      vertex 4.600000e+01 3.200000e+01 2.099998e+00
    endloop
  endfacet
  facet normal 0.000000e+00 -1.000000e+00 0.000000e+00
    outer loop
      vertex 4.700000e+01 3.200000e+01 2.000000e+00
      vertex 4.600000e+01 3.200000e+01 2.099998e+00
      vertex 4.200000e+01 3.200000e+01 2.000000e+00
    endloop
  endfacet
  facet normal 0.000000e+00 -1.000000e+00 0.000000e+00
    outer loop
      vertex 4.600000e+01 3.200000e+01 2.099998e+00
      vertex 4.700000e+01 3.200000e+01 2.000000e+00
      vertex 4.700000e+01 3.200000e+01 2.099998e+00
    endloop
  endfacet
  facet normal 0.000000e+00 -1.000000e+00 0.000000e+00
    outer loop
      vertex 4.400000e+01 3.200000e+01 4.300000e+01
      vertex 4.600000e+01 3.200000e+01 4.500000e+01
      vertex 4.400000e+01 3.200000e+01 4.500000e+01
    endloop
  endfacet
  facet normal 0.000000e+00 -1.000000e+00 0.000000e+00
    outer loop
      vertex 4.600000e+01 3.200000e+01 4.500000e+01
      vertex 4.400000e+01 3.200000e+01 4.300000e+01
      vertex 4.600000e+01 3.200000e+01 2.099998e+00
    endloop
  endfacet
  facet normal 1.000000e+00 0.000000e+00 0.000000e+00
    outer loop
      vertex -5.200000e+01 4.400000e+01 4.300000e+01
      vertex -5.200000e+01 4.600000e+01 4.500000e+01
      vertex -5.200000e+01 4.400000e+01 4.500000e+01
    endloop
  endfacet
  facet normal 1.000000e+00 0.000000e+00 0.000000e+00
    outer loop
      vertex -5.200000e+01 4.600000e+01 2.099998e+00
      vertex -5.200000e+01 4.700000e+01 2.000000e+00
      vertex -5.200000e+01 4.700000e+01 2.099998e+00
    endloop
  endfacet
  facet normal 1.000000e+00 0.000000e+00 0.000000e+00
    outer loop
      vertex -5.200000e+01 4.600000e+01 4.500000e+01
      vertex -5.200000e+01 4.400000e+01 4.300000e+01
      vertex -5.200000e+01 4.600000e+01 2.099998e+00
    endloop
  endfacet
  facet normal 1.000000e+00 0.000000e+00 0.000000e+00
    outer loop
      vertex -5.200000e+01 4.200000e+01 2.000000e+00
      vertex -5.200000e+01 4.400000e+01 4.300000e+01
      vertex -5.200000e+01 4.200000e+01 4.300000e+01
    endloop
  endfacet
  facet normal 1.000000e+00 0.000000e+00 0.000000e+00
    outer loop
      vertex -5.200000e+01 4.600000e+01 2.099998e+00
      vertex -5.200000e+01 4.200000e+01 2.000000e+00
      vertex -5.200000e+01 4.700000e+01 2.000000e+00
    endloop
  endfacet
  facet normal 1.000000e+00 0.000000e+00 0.000000e+00
    outer loop
      vertex -5.200000e+01 4.400000e+01 4.300000e+01
      vertex -5.200000e+01 4.200000e+01 2.000000e+00
      vertex -5.200000e+01 4.600000e+01 2.099998e+00
    endloop
  endfacet
  facet normal -1.000000e+00 0.000000e+00 0.000000e+00
    outer loop
      vertex 3.200000e+01 4.700000e+01 2.000000e+00
      vertex 3.200000e+01 4.600000e+01 2.099998e+00
      vertex 3.200000e+01 4.700000e+01 2.099998e+00
    endloop
  endfacet
  facet normal -1.000000e+00 0.000000e+00 0.000000e+00
    outer loop
      vertex 3.200000e+01 4.600000e+01 2.099998e+00
      vertex 3.200000e+01 4.400000e+01 4.300000e+01
      vertex 3.200000e+01 4.600000e+01 4.500000e+01
    endloop
  endfacet
  facet normal -1.000000e+00 0.000000e+00 0.000000e+00
    outer loop
      vertex 3.200000e+01 4.200000e+01 2.000000e+00
      vertex 3.200000e+01 4.600000e+01 2.099998e+00
      vertex 3.200000e+01 4.700000e+01 2.000000e+00
    endloop
  endfacet
  facet normal -1.000000e+00 0.000000e+00 0.000000e+00
    outer loop
      vertex 3.200000e+01 4.200000e+01 2.000000e+00
      vertex 3.200000e+01 4.400000e+01 4.300000e+01
      vertex 3.200000e+01 4.600000e+01 2.099998e+00
    endloop
  endfacet
  facet normal -1.000000e+00 0.000000e+00 0.000000e+00
    outer loop
      vertex 3.200000e+01 4.400000e+01 4.300000e+01
      vertex 3.200000e+01 4.200000e+01 2.000000e+00
      vertex 3.200000e+01 4.200000e+01 4.300000e+01
    endloop
  endfacet
  facet normal -1.000000e+00 0.000000e+00 0.000000e+00
    outer loop
      vertex 3.200000e+01 4.600000e+01 4.500000e+01
      vertex 3.200000e+01 4.400000e+01 4.300000e+01
      vertex 3.200000e+01 4.400000e+01 4.500000e+01
    endloop
  endfacet
  facet normal 0.000000e+00 -1.000000e+00 0.000000e+00
    outer loop
      vertex -5.200000e+01 4.700000e+01 2.000000e+00
      vertex 3.200000e+01 4.700000e+01 2.099998e+00
      vertex -5.200000e+01 4.700000e+01 2.099998e+00
    endloop
  endfacet
  facet normal 0.000000e+00 -1.000000e+00 0.000000e+00
    outer loop
      vertex 3.200000e+01 4.700000e+01 2.099998e+00
      vertex -5.200000e+01 4.700000e+01 2.000000e+00
      vertex 3.200000e+01 4.700000e+01 2.000000e+00
    endloop
  endfacet
  facet normal 1.000000e+00 0.000000e+00 0.000000e+00
    outer loop
      vertex -5.400000e+01 -5.200000e+01 2.000000e+00
      vertex -5.400000e+01 3.400000e+01 0.000000e+00
      vertex -5.400000e+01 3.400000e+01 2.000000e+00
    endloop
  endfacet
  facet normal 1.000000e+00 0.000000e+00 0.000000e+00
    outer loop
      vertex -5.400000e+01 3.400000e+01 0.000000e+00
      vertex -5.400000e+01 -5.200000e+01 2.000000e+00
      vertex -5.400000e+01 -5.200000e+01 0.000000e+00
    endloop
  endfacet
  facet normal -1.000000e+00 0.000000e+00 0.000000e+00
    outer loop
      vertex 3.400000e+01 -5.200000e+01 0.000000e+00
      vertex 3.400000e+01 3.400000e+01 2.000000e+00
      vertex 3.400000e+01 3.400000e+01 0.000000e+00
    endloop
  endfacet
  facet normal -1.000000e+00 0.000000e+00 0.000000e+00
    outer loop
      vertex 3.400000e+01 3.400000e+01 2.000000e+00
      vertex 3.400000e+01 -5.200000e+01 0.000000e+00
      vertex 3.400000e+01 -5.200000e+01 2.000000e+00
    endloop
  endfacet
  facet normal 0.000000e+00 -1.000000e+00 0.000000e+00
    outer loop
      vertex -5.400000e+01 3.400000e+01 0.000000e+00
      vertex 3.400000e+01 3.400000e+01 2.000000e+00
      vertex -5.400000e+01 3.400000e+01 2.000000e+00
    endloop
  endfacet
  facet normal 0.000000e+00 -1.000000e+00 0.000000e+00
    outer loop
      vertex 3.400000e+01 3.400000e+01 2.000000e+00
      vertex -5.400000e+01 3.400000e+01 0.000000e+00
      vertex 3.400000e+01 3.400000e+01 0.000000e+00
    endloop
  endfacet
  facet normal 0.000000e+00 1.000000e+00 0.000000e+00
    outer loop
      vertex 3.400000e+01 -5.200000e+01 0.000000e+00
      vertex -5.400000e+01 -5.200000e+01 2.000000e+00
      vertex 3.400000e+01 -5.200000e+01 2.000000e+00
    endloop
  endfacet
  facet normal 0.000000e+00 1.000000e+00 0.000000e+00
    outer loop
      vertex -5.400000e+01 -5.200000e+01 2.000000e+00
      vertex 3.400000e+01 -5.200000e+01 0.000000e+00
      vertex -5.400000e+01 -5.200000e+01 0.000000e+00
    endloop
  endfacet
endsolid Default
