solid OpenSCAD_Model
  facet normal -1 0 0
    outer loop
      vertex 0 99 0
      vertex 0 51 50
      vertex 0 99 50
    endloop
  endfacet
  facet normal -1 0 0
    outer loop
      vertex 0 0 0
      vertex 0 51 50
      vertex 0 99 0
    endloop
  endfacet
  facet normal -1 0 0
    outer loop
      vertex 0 0 95
      vertex 0 51 50
      vertex 0 0 0
    endloop
  endfacet
  facet normal -1 0 0
    outer loop
      vertex 0 51 50
      vertex 0 0 95
      vertex 0 51 95
    endloop
  endfacet
  facet normal 0 0 1
    outer loop
      vertex 110 51 95
      vertex 107 48 95
      vertex 110 0 95
    endloop
  endfacet
  facet normal 0 0 1
    outer loop
      vertex 110 51 95
      vertex 57 48 95
      vertex 107 48 95
    endloop
  endfacet
  facet normal 0 0 1
    outer loop
      vertex 57 48 95
      vertex 53 48 95
      vertex 57 3 95
    endloop
  endfacet
  facet normal 0 0 1
    outer loop
      vertex 110 51 95
      vertex 53 48 95
      vertex 57 48 95
    endloop
  endfacet
  facet normal -0 0 1
    outer loop
      vertex 0 51 95
      vertex 53 48 95
      vertex 110 51 95
    endloop
  endfacet
  facet normal 0 0 1
    outer loop
      vertex 3 48 95
      vertex 0 51 95
      vertex 3 3 95
    endloop
  endfacet
  facet normal 0 0 1
    outer loop
      vertex 53 48 95
      vertex 0 51 95
      vertex 3 48 95
    endloop
  endfacet
  facet normal -0 0 1
    outer loop
      vertex 107 3 95
      vertex 110 0 95
      vertex 107 48 95
    endloop
  endfacet
  facet normal -0 0 1
    outer loop
      vertex 57 3 95
      vertex 110 0 95
      vertex 107 3 95
    endloop
  endfacet
  facet normal 0 0 1
    outer loop
      vertex 53 3 95
      vertex 57 3 95
      vertex 53 48 95
    endloop
  endfacet
  facet normal -0 0 1
    outer loop
      vertex 53 3 95
      vertex 110 0 95
      vertex 57 3 95
    endloop
  endfacet
  facet normal 0 0 1
    outer loop
      vertex 0 0 95
      vertex 53 3 95
      vertex 3 3 95
    endloop
  endfacet
  facet normal 0 0 1
    outer loop
      vertex 53 3 95
      vertex 0 0 95
      vertex 110 0 95
    endloop
  endfacet
  facet normal 0 0 1
    outer loop
      vertex 0 0 95
      vertex 3 3 95
      vertex 0 51 95
    endloop
  endfacet
  facet normal 0 0 -1
    outer loop
      vertex 0 0 0
      vertex 110 99 0
      vertex 110 0 0
    endloop
  endfacet
  facet normal -0 0 -1
    outer loop
      vertex 110 99 0
      vertex 0 0 0
      vertex 0 99 0
    endloop
  endfacet
  facet normal 0 -1 0
    outer loop
      vertex 0 0 0
      vertex 110 0 95
      vertex 0 0 95
    endloop
  endfacet
  facet normal 0 -1 -0
    outer loop
      vertex 110 0 95
      vertex 0 0 0
      vertex 110 0 0
    endloop
  endfacet
  facet normal 0 1 -0
    outer loop
      vertex 53 51 3
      vertex 3 51 50
      vertex 53 51 50
    endloop
  endfacet
  facet normal 0 1 0
    outer loop
      vertex 3 51 50
      vertex 53 51 3
      vertex 3 51 3
    endloop
  endfacet
  facet normal 0 1 -0
    outer loop
      vertex 107 51 3
      vertex 57 51 50
      vertex 107 51 50
    endloop
  endfacet
  facet normal 0 1 0
    outer loop
      vertex 57 51 50
      vertex 107 51 3
      vertex 57 51 3
    endloop
  endfacet
  facet normal 0 1 0
    outer loop
      vertex 107 51 50
      vertex 110 51 95
      vertex 110 51 50
    endloop
  endfacet
  facet normal 0 1 0
    outer loop
      vertex 57 51 50
      vertex 110 51 95
      vertex 107 51 50
    endloop
  endfacet
  facet normal 0 1 0
    outer loop
      vertex 110 51 95
      vertex 57 51 50
      vertex 0 51 95
    endloop
  endfacet
  facet normal 0 1 -0
    outer loop
      vertex 53 51 50
      vertex 0 51 95
      vertex 57 51 50
    endloop
  endfacet
  facet normal 0 1 -0
    outer loop
      vertex 3 51 50
      vertex 0 51 95
      vertex 53 51 50
    endloop
  endfacet
  facet normal 0 1 0
    outer loop
      vertex 0 51 95
      vertex 3 51 50
      vertex 0 51 50
    endloop
  endfacet
  facet normal 1 -0 0
    outer loop
      vertex 3 3 95
      vertex 3 48 50
      vertex 3 48 95
    endloop
  endfacet
  facet normal 1 0 0
    outer loop
      vertex 3 3 3
      vertex 3 48 50
      vertex 3 3 95
    endloop
  endfacet
  facet normal 1 0 0
    outer loop
      vertex 3 48 50
      vertex 3 3 3
      vertex 3 48 3
    endloop
  endfacet
  facet normal -1 0 0
    outer loop
      vertex 53 3 3
      vertex 53 48 50
      vertex 53 48 3
    endloop
  endfacet
  facet normal -1 0 0
    outer loop
      vertex 53 3 95
      vertex 53 48 50
      vertex 53 3 3
    endloop
  endfacet
  facet normal -1 0 0
    outer loop
      vertex 53 48 50
      vertex 53 3 95
      vertex 53 48 95
    endloop
  endfacet
  facet normal 0 -1 0
    outer loop
      vertex 3 48 3
      vertex 53 48 50
      vertex 3 48 50
    endloop
  endfacet
  facet normal 0 -1 -0
    outer loop
      vertex 53 48 50
      vertex 3 48 3
      vertex 53 48 3
    endloop
  endfacet
  facet normal 0 -1 0
    outer loop
      vertex 3 48 50
      vertex 53 48 95
      vertex 3 48 95
    endloop
  endfacet
  facet normal 0 -1 -0
    outer loop
      vertex 53 48 95
      vertex 3 48 50
      vertex 53 48 50
    endloop
  endfacet
  facet normal -0 0 1
    outer loop
      vertex 3 48 3
      vertex 53 3 3
      vertex 53 48 3
    endloop
  endfacet
  facet normal 0 0 1
    outer loop
      vertex 53 3 3
      vertex 3 48 3
      vertex 3 3 3
    endloop
  endfacet
  facet normal 0 1 -0
    outer loop
      vertex 53 3 3
      vertex 3 3 95
      vertex 53 3 95
    endloop
  endfacet
  facet normal 0 1 0
    outer loop
      vertex 3 3 95
      vertex 53 3 3
      vertex 3 3 3
    endloop
  endfacet
  facet normal 0 0 1
    outer loop
      vertex 110 99 50
      vertex 107 96 50
      vertex 110 51 50
    endloop
  endfacet
  facet normal 0 0 1
    outer loop
      vertex 110 99 50
      vertex 57 96 50
      vertex 107 96 50
    endloop
  endfacet
  facet normal 0 0 1
    outer loop
      vertex 57 96 50
      vertex 53 96 50
      vertex 57 51 50
    endloop
  endfacet
  facet normal 0 0 1
    outer loop
      vertex 110 99 50
      vertex 53 96 50
      vertex 57 96 50
    endloop
  endfacet
  facet normal -0 0 1
    outer loop
      vertex 0 99 50
      vertex 53 96 50
      vertex 110 99 50
    endloop
  endfacet
  facet normal 0 0 1
    outer loop
      vertex 53 96 50
      vertex 0 99 50
      vertex 3 96 50
    endloop
  endfacet
  facet normal 0 0 1
    outer loop
      vertex 0 51 50
      vertex 3 96 50
      vertex 0 99 50
    endloop
  endfacet
  facet normal 0 0 1
    outer loop
      vertex 3 96 50
      vertex 0 51 50
      vertex 3 51 50
    endloop
  endfacet
  facet normal 0 0 1
    outer loop
      vertex 110 51 50
      vertex 107 96 50
      vertex 107 51 50
    endloop
  endfacet
  facet normal 0 0 1
    outer loop
      vertex 57 51 50
      vertex 53 96 50
      vertex 53 51 50
    endloop
  endfacet
  facet normal 0 1 -0
    outer loop
      vertex 110 99 0
      vertex 0 99 50
      vertex 110 99 50
    endloop
  endfacet
  facet normal 0 1 0
    outer loop
      vertex 0 99 50
      vertex 110 99 0
      vertex 0 99 0
    endloop
  endfacet
  facet normal 1 -0 0
    outer loop
      vertex 3 51 50
      vertex 3 96 3
      vertex 3 96 50
    endloop
  endfacet
  facet normal 1 0 0
    outer loop
      vertex 3 96 3
      vertex 3 51 50
      vertex 3 51 3
    endloop
  endfacet
  facet normal -1 0 0
    outer loop
      vertex 53 51 3
      vertex 53 96 50
      vertex 53 96 3
    endloop
  endfacet
  facet normal -1 -0 0
    outer loop
      vertex 53 96 50
      vertex 53 51 3
      vertex 53 51 50
    endloop
  endfacet
  facet normal -0 0 1
    outer loop
      vertex 3 96 3
      vertex 53 51 3
      vertex 53 96 3
    endloop
  endfacet
  facet normal 0 0 1
    outer loop
      vertex 53 51 3
      vertex 3 96 3
      vertex 3 51 3
    endloop
  endfacet
  facet normal 0 -1 0
    outer loop
      vertex 3 96 3
      vertex 53 96 50
      vertex 3 96 50
    endloop
  endfacet
  facet normal 0 -1 -0
    outer loop
      vertex 53 96 50
      vertex 3 96 3
      vertex 53 96 3
    endloop
  endfacet
  facet normal 1 0 0
    outer loop
      vertex 110 51 95
      vertex 110 0 95
      vertex 110 51 50
    endloop
  endfacet
  facet normal 1 -0 0
    outer loop
      vertex 110 51 50
      vertex 110 99 0
      vertex 110 99 50
    endloop
  endfacet
  facet normal 1 0 0
    outer loop
      vertex 110 0 0
      vertex 110 51 50
      vertex 110 0 95
    endloop
  endfacet
  facet normal 1 0 0
    outer loop
      vertex 110 51 50
      vertex 110 0 0
      vertex 110 99 0
    endloop
  endfacet
  facet normal 1 -0 0
    outer loop
      vertex 57 3 95
      vertex 57 48 50
      vertex 57 48 95
    endloop
  endfacet
  facet normal 1 0 0
    outer loop
      vertex 57 3 3
      vertex 57 48 50
      vertex 57 3 95
    endloop
  endfacet
  facet normal 1 0 0
    outer loop
      vertex 57 48 50
      vertex 57 3 3
      vertex 57 48 3
    endloop
  endfacet
  facet normal -1 0 0
    outer loop
      vertex 107 3 3
      vertex 107 48 50
      vertex 107 48 3
    endloop
  endfacet
  facet normal -1 0 0
    outer loop
      vertex 107 3 95
      vertex 107 48 50
      vertex 107 3 3
    endloop
  endfacet
  facet normal -1 0 0
    outer loop
      vertex 107 48 50
      vertex 107 3 95
      vertex 107 48 95
    endloop
  endfacet
  facet normal 0 -1 0
    outer loop
      vertex 57 48 3
      vertex 107 48 50
      vertex 57 48 50
    endloop
  endfacet
  facet normal 0 -1 -0
    outer loop
      vertex 107 48 50
      vertex 57 48 3
      vertex 107 48 3
    endloop
  endfacet
  facet normal 0 -1 0
    outer loop
      vertex 57 48 50
      vertex 107 48 95
      vertex 57 48 95
    endloop
  endfacet
  facet normal 0 -1 -0
    outer loop
      vertex 107 48 95
      vertex 57 48 50
      vertex 107 48 50
    endloop
  endfacet
  facet normal -0 0 1
    outer loop
      vertex 57 48 3
      vertex 107 3 3
      vertex 107 48 3
    endloop
  endfacet
  facet normal 0 0 1
    outer loop
      vertex 107 3 3
      vertex 57 48 3
      vertex 57 3 3
    endloop
  endfacet
  facet normal 0 1 -0
    outer loop
      vertex 107 3 3
      vertex 57 3 95
      vertex 107 3 95
    endloop
  endfacet
  facet normal 0 1 0
    outer loop
      vertex 57 3 95
      vertex 107 3 3
      vertex 57 3 3
    endloop
  endfacet
  facet normal 1 -0 0
    outer loop
      vertex 57 51 50
      vertex 57 96 3
      vertex 57 96 50
    endloop
  endfacet
  facet normal 1 0 0
    outer loop
      vertex 57 96 3
      vertex 57 51 50
      vertex 57 51 3
    endloop
  endfacet
  facet normal -1 0 0
    outer loop
      vertex 107 51 3
      vertex 107 96 50
      vertex 107 96 3
    endloop
  endfacet
  facet normal -1 -0 0
    outer loop
      vertex 107 96 50
      vertex 107 51 3
      vertex 107 51 50
    endloop
  endfacet
  facet normal -0 0 1
    outer loop
      vertex 57 96 3
      vertex 107 51 3
      vertex 107 96 3
    endloop
  endfacet
  facet normal 0 0 1
    outer loop
      vertex 107 51 3
      vertex 57 96 3
      vertex 57 51 3
    endloop
  endfacet
  facet normal 0 -1 0
    outer loop
      vertex 57 96 3
      vertex 107 96 50
      vertex 57 96 50
    endloop
  endfacet
  facet normal 0 -1 -0
    outer loop
      vertex 107 96 50
      vertex 57 96 3
      vertex 107 96 3
    endloop
  endfacet
endsolid OpenSCAD_Model
