solid Default
  facet normal 1.000000e+00 -1.224647e-16 0.000000e+00
    outer loop
      vertex -2.200000e+01 -4.950000e+01 0.000000e+00
      vertex -2.200000e+01 -1.500000e+00 5.000000e+01
      vertex -2.200000e+01 -4.950000e+01 5.000000e+01
    endloop
  endfacet
  facet normal 1.000000e+00 -1.224647e-16 0.000000e+00
    outer loop
      vertex -2.200000e+01 4.950000e+01 0.000000e+00
      vertex -2.200000e+01 -1.500000e+00 5.000000e+01
      vertex -2.200000e+01 -4.950000e+01 0.000000e+00
    endloop
  endfacet
  facet normal 1.000000e+00 -1.224647e-16 0.000000e+00
    outer loop
      vertex -2.200000e+01 4.950000e+01 9.500000e+01
      vertex -2.200000e+01 -1.500000e+00 5.000000e+01
      vertex -2.200000e+01 4.950000e+01 0.000000e+00
    endloop
  endfacet
  facet normal 1.000000e+00 -1.224647e-16 0.000000e+00
    outer loop
      vertex -2.200000e+01 -1.500000e+00 5.000000e+01
      vertex -2.200000e+01 4.950000e+01 9.500000e+01
      vertex -2.200000e+01 -1.500000e+00 9.500000e+01
    endloop
  endfacet
  facet normal 0.000000e+00 0.000000e+00 1.000000e+00
    outer loop
      vertex -7.800000e+01 -1.500000e+00 9.500000e+01
      vertex -7.500000e+01 1.500000e+00 9.500000e+01
      vertex -7.800000e+01 4.950000e+01 9.500000e+01
    endloop
  endfacet
  facet normal 0.000000e+00 0.000000e+00 1.000000e+00
    outer loop
      vertex -7.800000e+01 -1.500000e+00 9.500000e+01
      vertex -2.500000e+01 1.500000e+00 9.500000e+01
      vertex -7.500000e+01 1.500000e+00 9.500000e+01
    endloop
  endfacet
  facet normal 0.000000e+00 0.000000e+00 1.000000e+00
    outer loop
      vertex -2.500000e+01 1.500000e+00 9.500000e+01
      vertex -2.200000e+01 -1.500000e+00 9.500000e+01
      vertex -2.500000e+01 4.650000e+01 9.500000e+01
    endloop
  endfacet
  facet normal 0.000000e+00 0.000000e+00 1.000000e+00
    outer loop
      vertex -2.200000e+01 -1.500000e+00 9.500000e+01
      vertex -2.500000e+01 1.500000e+00 9.500000e+01
      vertex -7.800000e+01 -1.500000e+00 9.500000e+01
    endloop
  endfacet
  facet normal 0.000000e+00 0.000000e+00 1.000000e+00
    outer loop
      vertex -7.500000e+01 4.650000e+01 9.500000e+01
      vertex -7.800000e+01 4.950000e+01 9.500000e+01
      vertex -7.500000e+01 1.500000e+00 9.500000e+01
    endloop
  endfacet
  facet normal 0.000000e+00 0.000000e+00 1.000000e+00
    outer loop
      vertex -2.500000e+01 4.650000e+01 9.500000e+01
      vertex -7.800000e+01 4.950000e+01 9.500000e+01
      vertex -7.500000e+01 4.650000e+01 9.500000e+01
    endloop
  endfacet
  facet normal 0.000000e+00 0.000000e+00 1.000000e+00
    outer loop
      vertex -2.500000e+01 4.650000e+01 9.500000e+01
      vertex -2.200000e+01 4.950000e+01 9.500000e+01
      vertex -7.800000e+01 4.950000e+01 9.500000e+01
    endloop
  endfacet
  facet normal 0.000000e+00 0.000000e+00 1.000000e+00
    outer loop
      vertex -2.200000e+01 4.950000e+01 9.500000e+01
      vertex -2.500000e+01 4.650000e+01 9.500000e+01
      vertex -2.200000e+01 -1.500000e+00 9.500000e+01
    endloop
  endfacet
  facet normal -1.000000e+00 1.224647e-16 0.000000e+00
    outer loop
      vertex -7.800000e+01 -1.500000e+00 9.500000e+01
      vertex -7.800000e+01 4.950000e+01 9.500000e+01
      vertex -7.800000e+01 -1.500000e+00 5.000000e+01
    endloop
  endfacet
  facet normal -1.000000e+00 1.224647e-16 0.000000e+00
    outer loop
      vertex -7.800000e+01 -1.500000e+00 5.000000e+01
      vertex -7.800000e+01 -4.950000e+01 0.000000e+00
      vertex -7.800000e+01 -4.950000e+01 5.000000e+01
    endloop
  endfacet
  facet normal -1.000000e+00 1.224647e-16 0.000000e+00
    outer loop
      vertex -7.800000e+01 4.950000e+01 0.000000e+00
      vertex -7.800000e+01 -1.500000e+00 5.000000e+01
      vertex -7.800000e+01 4.950000e+01 9.500000e+01
    endloop
  endfacet
  facet normal -1.000000e+00 1.224647e-16 0.000000e+00
    outer loop
      vertex -7.800000e+01 -1.500000e+00 5.000000e+01
      vertex -7.800000e+01 4.950000e+01 0.000000e+00
      vertex -7.800000e+01 -4.950000e+01 0.000000e+00
    endloop
  endfacet
  facet normal -1.224647e-16 -1.000000e+00 0.000000e+00
    outer loop
      vertex -7.500000e+01 -1.500000e+00 3.000000e+00
      vertex -2.500000e+01 -1.500000e+00 5.000000e+01
      vertex -7.500000e+01 -1.500000e+00 5.000000e+01
    endloop
  endfacet
  facet normal -1.224647e-16 -1.000000e+00 0.000000e+00
    outer loop
      vertex -2.500000e+01 -1.500000e+00 5.000000e+01
      vertex -7.500000e+01 -1.500000e+00 3.000000e+00
      vertex -2.500000e+01 -1.500000e+00 3.000000e+00
    endloop
  endfacet
  facet normal -1.224647e-16 -1.000000e+00 0.000000e+00
    outer loop
      vertex -7.500000e+01 -1.500000e+00 5.000000e+01
      vertex -7.800000e+01 -1.500000e+00 9.500000e+01
      vertex -7.800000e+01 -1.500000e+00 5.000000e+01
    endloop
  endfacet
  facet normal -1.224647e-16 -1.000000e+00 0.000000e+00
    outer loop
      vertex -7.800000e+01 -1.500000e+00 9.500000e+01
      vertex -7.500000e+01 -1.500000e+00 5.000000e+01
      vertex -2.200000e+01 -1.500000e+00 9.500000e+01
    endloop
  endfacet
  facet normal -1.224647e-16 -1.000000e+00 0.000000e+00
    outer loop
      vertex -2.500000e+01 -1.500000e+00 5.000000e+01
      vertex -2.200000e+01 -1.500000e+00 9.500000e+01
      vertex -7.500000e+01 -1.500000e+00 5.000000e+01
    endloop
  endfacet
  facet normal -1.224647e-16 -1.000000e+00 0.000000e+00
    outer loop
      vertex -2.200000e+01 -1.500000e+00 9.500000e+01
      vertex -2.500000e+01 -1.500000e+00 5.000000e+01
      vertex -2.200000e+01 -1.500000e+00 5.000000e+01
    endloop
  endfacet
  facet normal 0.000000e+00 0.000000e+00 -1.000000e+00
    outer loop
      vertex -2.200000e+01 4.950000e+01 0.000000e+00
      vertex -7.800000e+01 -4.950000e+01 0.000000e+00
      vertex -7.800000e+01 4.950000e+01 0.000000e+00
    endloop
  endfacet
  facet normal 0.000000e+00 0.000000e+00 -1.000000e+00
    outer loop
      vertex -7.800000e+01 -4.950000e+01 0.000000e+00
      vertex -2.200000e+01 4.950000e+01 0.000000e+00
      vertex -2.200000e+01 -4.950000e+01 0.000000e+00
    endloop
  endfacet
  facet normal 1.224647e-16 1.000000e+00 0.000000e+00
    outer loop
      vertex -2.200000e+01 4.950000e+01 0.000000e+00
      vertex -7.800000e+01 4.950000e+01 9.500000e+01
      vertex -2.200000e+01 4.950000e+01 9.500000e+01
    endloop
  endfacet
  facet normal 1.224647e-16 1.000000e+00 0.000000e+00
    outer loop
      vertex -7.800000e+01 4.950000e+01 9.500000e+01
      vertex -2.200000e+01 4.950000e+01 0.000000e+00
      vertex -7.800000e+01 4.950000e+01 0.000000e+00
    endloop
  endfacet
  facet normal -1.000000e+00 1.224647e-16 0.000000e+00
    outer loop
      vertex -2.500000e+01 4.650000e+01 9.500000e+01
      vertex -2.500000e+01 1.500000e+00 5.000000e+01
      vertex -2.500000e+01 1.500000e+00 9.500000e+01
    endloop
  endfacet
  facet normal -1.000000e+00 1.224647e-16 0.000000e+00
    outer loop
      vertex -2.500000e+01 4.650000e+01 3.000000e+00
      vertex -2.500000e+01 1.500000e+00 5.000000e+01
      vertex -2.500000e+01 4.650000e+01 9.500000e+01
    endloop
  endfacet
  facet normal -1.000000e+00 1.224647e-16 0.000000e+00
    outer loop
      vertex -2.500000e+01 1.500000e+00 5.000000e+01
      vertex -2.500000e+01 4.650000e+01 3.000000e+00
      vertex -2.500000e+01 1.500000e+00 3.000000e+00
    endloop
  endfacet
  facet normal 1.000000e+00 -1.224647e-16 0.000000e+00
    outer loop
      vertex -7.500000e+01 4.650000e+01 3.000000e+00
      vertex -7.500000e+01 1.500000e+00 5.000000e+01
      vertex -7.500000e+01 1.500000e+00 3.000000e+00
    endloop
  endfacet
  facet normal 1.000000e+00 -1.224647e-16 0.000000e+00
    outer loop
      vertex -7.500000e+01 4.650000e+01 9.500000e+01
      vertex -7.500000e+01 1.500000e+00 5.000000e+01
      vertex -7.500000e+01 4.650000e+01 3.000000e+00
    endloop
  endfacet
  facet normal 1.000000e+00 -1.224647e-16 0.000000e+00
    outer loop
      vertex -7.500000e+01 1.500000e+00 5.000000e+01
      vertex -7.500000e+01 4.650000e+01 9.500000e+01
      vertex -7.500000e+01 1.500000e+00 9.500000e+01
    endloop
  endfacet
  facet normal 1.224647e-16 1.000000e+00 0.000000e+00
    outer loop
      vertex -2.500000e+01 1.500000e+00 3.000000e+00
      vertex -7.500000e+01 1.500000e+00 5.000000e+01
      vertex -2.500000e+01 1.500000e+00 5.000000e+01
    endloop
  endfacet
  facet normal 1.224647e-16 1.000000e+00 0.000000e+00
    outer loop
      vertex -7.500000e+01 1.500000e+00 5.000000e+01
      vertex -2.500000e+01 1.500000e+00 3.000000e+00
      vertex -7.500000e+01 1.500000e+00 3.000000e+00
    endloop
  endfacet
  facet normal 1.224647e-16 1.000000e+00 0.000000e+00
    outer loop
      vertex -2.500000e+01 1.500000e+00 5.000000e+01
      vertex -7.500000e+01 1.500000e+00 9.500000e+01
      vertex -2.500000e+01 1.500000e+00 9.500000e+01
    endloop
  endfacet
  facet normal 1.224647e-16 1.000000e+00 0.000000e+00
    outer loop
      vertex -7.500000e+01 1.500000e+00 9.500000e+01
      vertex -2.500000e+01 1.500000e+00 5.000000e+01
      vertex -7.500000e+01 1.500000e+00 5.000000e+01
    endloop
  endfacet
  facet normal 0.000000e+00 0.000000e+00 1.000000e+00
    outer loop
      vertex -2.500000e+01 1.500000e+00 3.000000e+00
      vertex -7.500000e+01 4.650000e+01 3.000000e+00
      vertex -7.500000e+01 1.500000e+00 3.000000e+00
    endloop
  endfacet
  facet normal 0.000000e+00 0.000000e+00 1.000000e+00
    outer loop
      vertex -7.500000e+01 4.650000e+01 3.000000e+00
      vertex -2.500000e+01 1.500000e+00 3.000000e+00
      vertex -2.500000e+01 4.650000e+01 3.000000e+00
    endloop
  endfacet
  facet normal -1.224647e-16 -1.000000e+00 0.000000e+00
    outer loop
      vertex -7.500000e+01 4.650000e+01 3.000000e+00
      vertex -2.500000e+01 4.650000e+01 9.500000e+01
      vertex -7.500000e+01 4.650000e+01 9.500000e+01
    endloop
  endfacet
  facet normal -1.224647e-16 -1.000000e+00 0.000000e+00
    outer loop
      vertex -2.500000e+01 4.650000e+01 9.500000e+01
      vertex -7.500000e+01 4.650000e+01 3.000000e+00
      vertex -2.500000e+01 4.650000e+01 3.000000e+00
    endloop
  endfacet
  facet normal 0.000000e+00 0.000000e+00 1.000000e+00
    outer loop
      vertex -7.800000e+01 -4.950000e+01 5.000000e+01
      vertex -7.500000e+01 -4.650000e+01 5.000000e+01
      vertex -7.800000e+01 -1.500000e+00 5.000000e+01
    endloop
  endfacet
  facet normal 0.000000e+00 0.000000e+00 1.000000e+00
    outer loop
      vertex -7.800000e+01 -4.950000e+01 5.000000e+01
      vertex -2.500000e+01 -4.650000e+01 5.000000e+01
      vertex -7.500000e+01 -4.650000e+01 5.000000e+01
    endloop
  endfacet
  facet normal 0.000000e+00 0.000000e+00 1.000000e+00
    outer loop
      vertex -2.200000e+01 -4.950000e+01 5.000000e+01
      vertex -2.500000e+01 -4.650000e+01 5.000000e+01
      vertex -7.800000e+01 -4.950000e+01 5.000000e+01
    endloop
  endfacet
  facet normal 0.000000e+00 0.000000e+00 1.000000e+00
    outer loop
      vertex -2.200000e+01 -1.500000e+00 5.000000e+01
      vertex -2.500000e+01 -4.650000e+01 5.000000e+01
      vertex -2.200000e+01 -4.950000e+01 5.000000e+01
    endloop
  endfacet
  facet normal 0.000000e+00 0.000000e+00 1.000000e+00
    outer loop
      vertex -2.500000e+01 -4.650000e+01 5.000000e+01
      vertex -2.200000e+01 -1.500000e+00 5.000000e+01
      vertex -2.500000e+01 -1.500000e+00 5.000000e+01
    endloop
  endfacet
  facet normal 0.000000e+00 0.000000e+00 1.000000e+00
    outer loop
      vertex -7.800000e+01 -1.500000e+00 5.000000e+01
      vertex -7.500000e+01 -4.650000e+01 5.000000e+01
      vertex -7.500000e+01 -1.500000e+00 5.000000e+01
    endloop
  endfacet
  facet normal -1.224647e-16 -1.000000e+00 0.000000e+00
    outer loop
      vertex -7.800000e+01 -4.950000e+01 0.000000e+00
      vertex -2.200000e+01 -4.950000e+01 5.000000e+01
      vertex -7.800000e+01 -4.950000e+01 5.000000e+01
    endloop
  endfacet
  facet normal -1.224647e-16 -1.000000e+00 0.000000e+00
    outer loop
      vertex -2.200000e+01 -4.950000e+01 5.000000e+01
      vertex -7.800000e+01 -4.950000e+01 0.000000e+00
      vertex -2.200000e+01 -4.950000e+01 0.000000e+00
    endloop
  endfacet
  facet normal -1.000000e+00 1.224647e-16 0.000000e+00
    outer loop
      vertex -2.500000e+01 -1.500000e+00 5.000000e+01
      vertex -2.500000e+01 -4.650000e+01 3.000000e+00
      vertex -2.500000e+01 -4.650000e+01 5.000000e+01
    endloop
  endfacet
  facet normal -1.000000e+00 1.224647e-16 0.000000e+00
    outer loop
      vertex -2.500000e+01 -4.650000e+01 3.000000e+00
      vertex -2.500000e+01 -1.500000e+00 5.000000e+01
      vertex -2.500000e+01 -1.500000e+00 3.000000e+00
    endloop
  endfacet
  facet normal 1.000000e+00 -1.224647e-16 0.000000e+00
    outer loop
      vertex -7.500000e+01 -1.500000e+00 3.000000e+00
      vertex -7.500000e+01 -4.650000e+01 5.000000e+01
      vertex -7.500000e+01 -4.650000e+01 3.000000e+00
    endloop
  endfacet
  facet normal 1.000000e+00 -1.224647e-16 0.000000e+00
    outer loop
      vertex -7.500000e+01 -4.650000e+01 5.000000e+01
      vertex -7.500000e+01 -1.500000e+00 3.000000e+00
      vertex -7.500000e+01 -1.500000e+00 5.000000e+01
    endloop
  endfacet
  facet normal 0.000000e+00 0.000000e+00 1.000000e+00
    outer loop
      vertex -2.500000e+01 -4.650000e+01 3.000000e+00
      vertex -7.500000e+01 -1.500000e+00 3.000000e+00
      vertex -7.500000e+01 -4.650000e+01 3.000000e+00
    endloop
  endfacet
  facet normal 0.000000e+00 0.000000e+00 1.000000e+00
    outer loop
      vertex -7.500000e+01 -1.500000e+00 3.000000e+00
      vertex -2.500000e+01 -4.650000e+01 3.000000e+00
      vertex -2.500000e+01 -1.500000e+00 3.000000e+00
    endloop
  endfacet
  facet normal 1.224647e-16 1.000000e+00 0.000000e+00
    outer loop
      vertex -2.500000e+01 -4.650000e+01 3.000000e+00
      vertex -7.500000e+01 -4.650000e+01 5.000000e+01
      vertex -2.500000e+01 -4.650000e+01 5.000000e+01
    endloop
  endfacet
  facet normal 1.224647e-16 1.000000e+00 0.000000e+00
    outer loop
      vertex -7.500000e+01 -4.650000e+01 5.000000e+01
      vertex -2.500000e+01 -4.650000e+01 3.000000e+00
      vertex -7.500000e+01 -4.650000e+01 3.000000e+00
    endloop
  endfacet
endsolid Default
