solid OpenSCAD_Model
  facet normal -1 0 0
    outer loop
      vertex 0 0 0
      vertex 0 150 2.5
      vertex 0 150 0
    endloop
  endfacet
  facet normal -1 -0 0
    outer loop
      vertex 0 150 2.5
      vertex 0 0 0
      vertex 0 0 2.5
    endloop
  endfacet
  facet normal -0 0 1
    outer loop
      vertex 19.6628 112.147 5
      vertex 19.7 37.5 5
      vertex 19.7 112.5 5
    endloop
  endfacet
  facet normal 0 0 1
    outer loop
      vertex 19.6628 112.147 5
      vertex 19.6628 37.8535 5
      vertex 19.7 37.5 5
    endloop
  endfacet
  facet normal -0 0 1
    outer loop
      vertex 19.553 111.809 5
      vertex 19.6628 37.8535 5
      vertex 19.6628 112.147 5
    endloop
  endfacet
  facet normal 0 0 1
    outer loop
      vertex 19.553 111.809 5
      vertex 19.553 38.1915 5
      vertex 19.6628 37.8535 5
    endloop
  endfacet
  facet normal -0 0 1
    outer loop
      vertex 19.3753 111.501 5
      vertex 19.553 38.1915 5
      vertex 19.553 111.809 5
    endloop
  endfacet
  facet normal 0 0 1
    outer loop
      vertex 19.3753 111.501 5
      vertex 19.3753 38.4992 5
      vertex 19.553 38.1915 5
    endloop
  endfacet
  facet normal -0 0 1
    outer loop
      vertex 19.1375 111.237 5
      vertex 19.3753 38.4992 5
      vertex 19.3753 111.501 5
    endloop
  endfacet
  facet normal 0 0 1
    outer loop
      vertex 19.1375 111.237 5
      vertex 19.1375 38.7633 5
      vertex 19.3753 38.4992 5
    endloop
  endfacet
  facet normal -0 0 1
    outer loop
      vertex 18.85 111.028 5
      vertex 19.1375 38.7633 5
      vertex 19.1375 111.237 5
    endloop
  endfacet
  facet normal 0 0 1
    outer loop
      vertex 18.85 111.028 5
      vertex 18.85 38.9722 5
      vertex 19.1375 38.7633 5
    endloop
  endfacet
  facet normal -0 0 1
    outer loop
      vertex 18.5253 110.883 5
      vertex 18.85 38.9722 5
      vertex 18.85 111.028 5
    endloop
  endfacet
  facet normal 0 0 1
    outer loop
      vertex 18.5253 110.883 5
      vertex 18.5253 39.1168 5
      vertex 18.85 38.9722 5
    endloop
  endfacet
  facet normal -0 0 1
    outer loop
      vertex 18.1777 110.809 5
      vertex 18.5253 39.1168 5
      vertex 18.5253 110.883 5
    endloop
  endfacet
  facet normal 0 0 1
    outer loop
      vertex 18.1777 110.809 5
      vertex 18.1777 39.1907 5
      vertex 18.5253 39.1168 5
    endloop
  endfacet
  facet normal -0 0 1
    outer loop
      vertex 17.8223 110.809 5
      vertex 18.1777 39.1907 5
      vertex 18.1777 110.809 5
    endloop
  endfacet
  facet normal 0 0 1
    outer loop
      vertex 17.8223 110.809 5
      vertex 17.8223 39.1907 5
      vertex 18.1777 39.1907 5
    endloop
  endfacet
  facet normal 0 0 1
    outer loop
      vertex 17.4747 110.883 5
      vertex 17.8223 39.1907 5
      vertex 17.8223 110.809 5
    endloop
  endfacet
  facet normal 0 0 1
    outer loop
      vertex 17.4747 110.883 5
      vertex 17.4747 39.1168 5
      vertex 17.8223 39.1907 5
    endloop
  endfacet
  facet normal 0 0 1
    outer loop
      vertex 17.15 111.028 5
      vertex 17.4747 39.1168 5
      vertex 17.4747 110.883 5
    endloop
  endfacet
  facet normal 0 0 1
    outer loop
      vertex 17.15 111.028 5
      vertex 17.15 38.9722 5
      vertex 17.4747 39.1168 5
    endloop
  endfacet
  facet normal 0 0 1
    outer loop
      vertex 16.8625 111.237 5
      vertex 17.15 38.9722 5
      vertex 17.15 111.028 5
    endloop
  endfacet
  facet normal 0 0 1
    outer loop
      vertex 16.8625 111.237 5
      vertex 16.8625 38.7633 5
      vertex 17.15 38.9722 5
    endloop
  endfacet
  facet normal 0 0 1
    outer loop
      vertex 16.6247 111.501 5
      vertex 16.8625 38.7633 5
      vertex 16.8625 111.237 5
    endloop
  endfacet
  facet normal 0 0 1
    outer loop
      vertex 16.6247 111.501 5
      vertex 16.6247 38.4992 5
      vertex 16.8625 38.7633 5
    endloop
  endfacet
  facet normal 0 0 1
    outer loop
      vertex 16.447 111.809 5
      vertex 16.6247 38.4992 5
      vertex 16.6247 111.501 5
    endloop
  endfacet
  facet normal 0 0 1
    outer loop
      vertex 16.447 111.809 5
      vertex 16.447 38.1915 5
      vertex 16.6247 38.4992 5
    endloop
  endfacet
  facet normal 0 0 1
    outer loop
      vertex 16.3371 112.147 5
      vertex 16.447 38.1915 5
      vertex 16.447 111.809 5
    endloop
  endfacet
  facet normal 0 0 1
    outer loop
      vertex 16.3371 112.147 5
      vertex 16.3371 37.8535 5
      vertex 16.447 38.1915 5
    endloop
  endfacet
  facet normal 0 0 1
    outer loop
      vertex 16.3 112.5 5
      vertex 16.3371 37.8535 5
      vertex 16.3371 112.147 5
    endloop
  endfacet
  facet normal 0 0 1
    outer loop
      vertex 16.3371 37.8535 5
      vertex 16.3 112.5 5
      vertex 16.3 37.5 5
    endloop
  endfacet
  facet normal 0 0 1
    outer loop
      vertex 24 150 5
      vertex 19.7 112.5 5
      vertex 24 0 5
    endloop
  endfacet
  facet normal 0 0 1
    outer loop
      vertex 24 150 5
      vertex 19.6628 112.853 5
      vertex 19.7 112.5 5
    endloop
  endfacet
  facet normal 0 0 1
    outer loop
      vertex 24 150 5
      vertex 19.553 113.191 5
      vertex 19.6628 112.853 5
    endloop
  endfacet
  facet normal 0 0 1
    outer loop
      vertex 24 150 5
      vertex 19.3753 113.499 5
      vertex 19.553 113.191 5
    endloop
  endfacet
  facet normal 0 0 1
    outer loop
      vertex 24 150 5
      vertex 19.1375 113.763 5
      vertex 19.3753 113.499 5
    endloop
  endfacet
  facet normal 0 0 1
    outer loop
      vertex 24 150 5
      vertex 18.85 113.972 5
      vertex 19.1375 113.763 5
    endloop
  endfacet
  facet normal 0 0 1
    outer loop
      vertex 24 150 5
      vertex 18.5253 114.117 5
      vertex 18.85 113.972 5
    endloop
  endfacet
  facet normal 0 0 1
    outer loop
      vertex 24 150 5
      vertex 18.1777 114.191 5
      vertex 18.5253 114.117 5
    endloop
  endfacet
  facet normal 0 0 1
    outer loop
      vertex 24 150 5
      vertex 17.8223 114.191 5
      vertex 18.1777 114.191 5
    endloop
  endfacet
  facet normal -0 0 1
    outer loop
      vertex 12 150 5
      vertex 17.8223 114.191 5
      vertex 24 150 5
    endloop
  endfacet
  facet normal 0 0 1
    outer loop
      vertex 17.8223 114.191 5
      vertex 12 150 5
      vertex 17.4747 114.117 5
    endloop
  endfacet
  facet normal 0 0 1
    outer loop
      vertex 17.4747 114.117 5
      vertex 12 150 5
      vertex 17.15 113.972 5
    endloop
  endfacet
  facet normal 0 0 1
    outer loop
      vertex 17.15 113.972 5
      vertex 12 150 5
      vertex 16.8625 113.763 5
    endloop
  endfacet
  facet normal 0 0 1
    outer loop
      vertex 16.8625 113.763 5
      vertex 12 150 5
      vertex 16.6247 113.499 5
    endloop
  endfacet
  facet normal 0 0 1
    outer loop
      vertex 16.6247 113.499 5
      vertex 12 150 5
      vertex 16.447 113.191 5
    endloop
  endfacet
  facet normal 0 0 1
    outer loop
      vertex 16.3 112.5 5
      vertex 12 150 5
      vertex 16.3 37.5 5
    endloop
  endfacet
  facet normal 0 0 1
    outer loop
      vertex 16.3371 112.853 5
      vertex 12 150 5
      vertex 16.3 112.5 5
    endloop
  endfacet
  facet normal 0 0 1
    outer loop
      vertex 16.447 113.191 5
      vertex 12 150 5
      vertex 16.3371 112.853 5
    endloop
  endfacet
  facet normal -0 0 1
    outer loop
      vertex 19.7 37.5 5
      vertex 24 0 5
      vertex 19.7 112.5 5
    endloop
  endfacet
  facet normal -0 0 1
    outer loop
      vertex 19.6628 37.1465 5
      vertex 24 0 5
      vertex 19.7 37.5 5
    endloop
  endfacet
  facet normal -0 0 1
    outer loop
      vertex 19.553 36.8085 5
      vertex 24 0 5
      vertex 19.6628 37.1465 5
    endloop
  endfacet
  facet normal -0 0 1
    outer loop
      vertex 19.3753 36.5008 5
      vertex 24 0 5
      vertex 19.553 36.8085 5
    endloop
  endfacet
  facet normal -0 0 1
    outer loop
      vertex 19.1375 36.2367 5
      vertex 24 0 5
      vertex 19.3753 36.5008 5
    endloop
  endfacet
  facet normal -0 0 1
    outer loop
      vertex 18.85 36.0278 5
      vertex 24 0 5
      vertex 19.1375 36.2367 5
    endloop
  endfacet
  facet normal -0 0 1
    outer loop
      vertex 18.5253 35.8832 5
      vertex 24 0 5
      vertex 18.85 36.0278 5
    endloop
  endfacet
  facet normal -0 0 1
    outer loop
      vertex 18.1777 35.8093 5
      vertex 24 0 5
      vertex 18.5253 35.8832 5
    endloop
  endfacet
  facet normal -0 0 1
    outer loop
      vertex 17.8223 35.8093 5
      vertex 24 0 5
      vertex 18.1777 35.8093 5
    endloop
  endfacet
  facet normal 0 0 1
    outer loop
      vertex 12 0 5
      vertex 17.8223 35.8093 5
      vertex 17.4747 35.8832 5
    endloop
  endfacet
  facet normal 0 0 1
    outer loop
      vertex 12 0 5
      vertex 17.4747 35.8832 5
      vertex 17.15 36.0278 5
    endloop
  endfacet
  facet normal 0 0 1
    outer loop
      vertex 12 0 5
      vertex 17.15 36.0278 5
      vertex 16.8625 36.2367 5
    endloop
  endfacet
  facet normal 0 0 1
    outer loop
      vertex 12 0 5
      vertex 16.8625 36.2367 5
      vertex 16.6247 36.5008 5
    endloop
  endfacet
  facet normal 0 0 1
    outer loop
      vertex 12 0 5
      vertex 16.6247 36.5008 5
      vertex 16.447 36.8085 5
    endloop
  endfacet
  facet normal 0 0 1
    outer loop
      vertex 12 0 5
      vertex 16.447 36.8085 5
      vertex 16.3371 37.1465 5
    endloop
  endfacet
  facet normal 0 0 1
    outer loop
      vertex 17.8223 35.8093 5
      vertex 12 0 5
      vertex 24 0 5
    endloop
  endfacet
  facet normal 0 0 1
    outer loop
      vertex 16.3 37.5 5
      vertex 12 0 5
      vertex 16.3371 37.1465 5
    endloop
  endfacet
  facet normal 0 0 1
    outer loop
      vertex 12 0 5
      vertex 16.3 37.5 5
      vertex 12 150 5
    endloop
  endfacet
  facet normal 1 -0 0
    outer loop
      vertex 24 0 5
      vertex 24 150 0
      vertex 24 150 5
    endloop
  endfacet
  facet normal 1 0 0
    outer loop
      vertex 24 150 0
      vertex 24 0 5
      vertex 24 0 0
    endloop
  endfacet
  facet normal 0 1 0
    outer loop
      vertex 24 150 5
      vertex 12 150 2.5
      vertex 12 150 5
    endloop
  endfacet
  facet normal 0 1 -0
    outer loop
      vertex 24 150 0
      vertex 12 150 2.5
      vertex 24 150 5
    endloop
  endfacet
  facet normal 0 1 0
    outer loop
      vertex 0 150 0
      vertex 12 150 2.5
      vertex 24 150 0
    endloop
  endfacet
  facet normal 0 1 0
    outer loop
      vertex 12 150 2.5
      vertex 0 150 0
      vertex 0 150 2.5
    endloop
  endfacet
  facet normal 0 0 -1
    outer loop
      vertex 19.6628 37.8535 0
      vertex 19.7 112.5 0
      vertex 19.7 37.5 0
    endloop
  endfacet
  facet normal 0 0 -1
    outer loop
      vertex 19.6628 37.8535 0
      vertex 19.6628 112.147 0
      vertex 19.7 112.5 0
    endloop
  endfacet
  facet normal 0 0 -1
    outer loop
      vertex 19.553 38.1915 0
      vertex 19.6628 112.147 0
      vertex 19.6628 37.8535 0
    endloop
  endfacet
  facet normal 0 0 -1
    outer loop
      vertex 19.553 38.1915 0
      vertex 19.553 111.809 0
      vertex 19.6628 112.147 0
    endloop
  endfacet
  facet normal 0 0 -1
    outer loop
      vertex 19.3753 38.4992 0
      vertex 19.553 111.809 0
      vertex 19.553 38.1915 0
    endloop
  endfacet
  facet normal 0 0 -1
    outer loop
      vertex 19.3753 38.4992 0
      vertex 19.3753 111.501 0
      vertex 19.553 111.809 0
    endloop
  endfacet
  facet normal 0 0 -1
    outer loop
      vertex 19.1375 38.7633 0
      vertex 19.3753 111.501 0
      vertex 19.3753 38.4992 0
    endloop
  endfacet
  facet normal 0 0 -1
    outer loop
      vertex 19.1375 38.7633 0
      vertex 19.1375 111.237 0
      vertex 19.3753 111.501 0
    endloop
  endfacet
  facet normal 0 0 -1
    outer loop
      vertex 18.85 38.9722 0
      vertex 19.1375 111.237 0
      vertex 19.1375 38.7633 0
    endloop
  endfacet
  facet normal 0 0 -1
    outer loop
      vertex 18.85 38.9722 0
      vertex 18.85 111.028 0
      vertex 19.1375 111.237 0
    endloop
  endfacet
  facet normal 0 0 -1
    outer loop
      vertex 18.5253 39.1168 0
      vertex 18.85 111.028 0
      vertex 18.85 38.9722 0
    endloop
  endfacet
  facet normal 0 0 -1
    outer loop
      vertex 18.5253 39.1168 0
      vertex 18.5253 110.883 0
      vertex 18.85 111.028 0
    endloop
  endfacet
  facet normal 0 0 -1
    outer loop
      vertex 18.1777 39.1907 0
      vertex 18.5253 110.883 0
      vertex 18.5253 39.1168 0
    endloop
  endfacet
  facet normal 0 0 -1
    outer loop
      vertex 18.1777 39.1907 0
      vertex 18.1777 110.809 0
      vertex 18.5253 110.883 0
    endloop
  endfacet
  facet normal 0 0 -1
    outer loop
      vertex 17.8223 39.1907 0
      vertex 18.1777 110.809 0
      vertex 18.1777 39.1907 0
    endloop
  endfacet
  facet normal 0 0 -1
    outer loop
      vertex 17.8223 39.1907 0
      vertex 17.8223 110.809 0
      vertex 18.1777 110.809 0
    endloop
  endfacet
  facet normal 0 0 -1
    outer loop
      vertex 17.4747 39.1168 0
      vertex 17.8223 110.809 0
      vertex 17.8223 39.1907 0
    endloop
  endfacet
  facet normal 0 0 -1
    outer loop
      vertex 17.4747 39.1168 0
      vertex 17.4747 110.883 0
      vertex 17.8223 110.809 0
    endloop
  endfacet
  facet normal 0 0 -1
    outer loop
      vertex 17.15 38.9722 0
      vertex 17.4747 110.883 0
      vertex 17.4747 39.1168 0
    endloop
  endfacet
  facet normal 0 0 -1
    outer loop
      vertex 17.15 38.9722 0
      vertex 17.15 111.028 0
      vertex 17.4747 110.883 0
    endloop
  endfacet
  facet normal 0 0 -1
    outer loop
      vertex 16.8625 38.7633 0
      vertex 17.15 111.028 0
      vertex 17.15 38.9722 0
    endloop
  endfacet
  facet normal 0 0 -1
    outer loop
      vertex 16.8625 38.7633 0
      vertex 16.8625 111.237 0
      vertex 17.15 111.028 0
    endloop
  endfacet
  facet normal 0 0 -1
    outer loop
      vertex 16.6247 38.4992 0
      vertex 16.8625 111.237 0
      vertex 16.8625 38.7633 0
    endloop
  endfacet
  facet normal 0 0 -1
    outer loop
      vertex 16.6247 38.4992 0
      vertex 16.6247 111.501 0
      vertex 16.8625 111.237 0
    endloop
  endfacet
  facet normal 0 0 -1
    outer loop
      vertex 16.447 38.1915 0
      vertex 16.6247 111.501 0
      vertex 16.6247 38.4992 0
    endloop
  endfacet
  facet normal 0 0 -1
    outer loop
      vertex 16.447 38.1915 0
      vertex 16.447 111.809 0
      vertex 16.6247 111.501 0
    endloop
  endfacet
  facet normal 0 0 -1
    outer loop
      vertex 16.3371 37.8535 0
      vertex 16.447 111.809 0
      vertex 16.447 38.1915 0
    endloop
  endfacet
  facet normal 0 0 -1
    outer loop
      vertex 16.3371 37.8535 0
      vertex 16.3371 112.147 0
      vertex 16.447 111.809 0
    endloop
  endfacet
  facet normal 0 0 -1
    outer loop
      vertex 0 0 0
      vertex 16.3371 37.8535 0
      vertex 16.3 37.5 0
    endloop
  endfacet
  facet normal -0 0 -1
    outer loop
      vertex 16.3371 37.8535 0
      vertex 0 0 0
      vertex 16.3371 112.147 0
    endloop
  endfacet
  facet normal 0 0 -1
    outer loop
      vertex 24 0 0
      vertex 19.7 37.5 0
      vertex 24 150 0
    endloop
  endfacet
  facet normal 0 0 -1
    outer loop
      vertex 24 0 0
      vertex 19.6628 37.1465 0
      vertex 19.7 37.5 0
    endloop
  endfacet
  facet normal 0 0 -1
    outer loop
      vertex 24 0 0
      vertex 19.553 36.8085 0
      vertex 19.6628 37.1465 0
    endloop
  endfacet
  facet normal 0 0 -1
    outer loop
      vertex 24 0 0
      vertex 19.3753 36.5008 0
      vertex 19.553 36.8085 0
    endloop
  endfacet
  facet normal 0 0 -1
    outer loop
      vertex 24 0 0
      vertex 19.1375 36.2367 0
      vertex 19.3753 36.5008 0
    endloop
  endfacet
  facet normal 0 0 -1
    outer loop
      vertex 24 0 0
      vertex 18.85 36.0278 0
      vertex 19.1375 36.2367 0
    endloop
  endfacet
  facet normal 0 0 -1
    outer loop
      vertex 24 0 0
      vertex 18.5253 35.8832 0
      vertex 18.85 36.0278 0
    endloop
  endfacet
  facet normal 0 0 -1
    outer loop
      vertex 24 0 0
      vertex 18.1777 35.8093 0
      vertex 18.5253 35.8832 0
    endloop
  endfacet
  facet normal 0 0 -1
    outer loop
      vertex 24 0 0
      vertex 17.8223 35.8093 0
      vertex 18.1777 35.8093 0
    endloop
  endfacet
  facet normal 0 0 -1
    outer loop
      vertex 24 0 0
      vertex 17.4747 35.8832 0
      vertex 17.8223 35.8093 0
    endloop
  endfacet
  facet normal 0 0 -1
    outer loop
      vertex 0 0 0
      vertex 17.4747 35.8832 0
      vertex 24 0 0
    endloop
  endfacet
  facet normal -0 0 -1
    outer loop
      vertex 17.4747 35.8832 0
      vertex 0 0 0
      vertex 17.15 36.0278 0
    endloop
  endfacet
  facet normal -0 0 -1
    outer loop
      vertex 17.15 36.0278 0
      vertex 0 0 0
      vertex 16.8625 36.2367 0
    endloop
  endfacet
  facet normal -0 0 -1
    outer loop
      vertex 16.8625 36.2367 0
      vertex 0 0 0
      vertex 16.6247 36.5008 0
    endloop
  endfacet
  facet normal -0 0 -1
    outer loop
      vertex 16.6247 36.5008 0
      vertex 0 0 0
      vertex 16.447 36.8085 0
    endloop
  endfacet
  facet normal 0 0 -1
    outer loop
      vertex 0 150 0
      vertex 16.3371 112.147 0
      vertex 0 0 0
    endloop
  endfacet
  facet normal -0 0 -1
    outer loop
      vertex 16.3371 37.1465 0
      vertex 0 0 0
      vertex 16.3 37.5 0
    endloop
  endfacet
  facet normal -0 0 -1
    outer loop
      vertex 16.447 36.8085 0
      vertex 0 0 0
      vertex 16.3371 37.1465 0
    endloop
  endfacet
  facet normal 0 0 -1
    outer loop
      vertex 19.7 112.5 0
      vertex 24 150 0
      vertex 19.7 37.5 0
    endloop
  endfacet
  facet normal 0 0 -1
    outer loop
      vertex 19.6628 112.853 0
      vertex 24 150 0
      vertex 19.7 112.5 0
    endloop
  endfacet
  facet normal 0 0 -1
    outer loop
      vertex 19.553 113.191 0
      vertex 24 150 0
      vertex 19.6628 112.853 0
    endloop
  endfacet
  facet normal 0 0 -1
    outer loop
      vertex 19.3753 113.499 0
      vertex 24 150 0
      vertex 19.553 113.191 0
    endloop
  endfacet
  facet normal 0 0 -1
    outer loop
      vertex 19.1375 113.763 0
      vertex 24 150 0
      vertex 19.3753 113.499 0
    endloop
  endfacet
  facet normal 0 0 -1
    outer loop
      vertex 18.85 113.972 0
      vertex 24 150 0
      vertex 19.1375 113.763 0
    endloop
  endfacet
  facet normal 0 0 -1
    outer loop
      vertex 18.5253 114.117 0
      vertex 24 150 0
      vertex 18.85 113.972 0
    endloop
  endfacet
  facet normal 0 0 -1
    outer loop
      vertex 18.1777 114.191 0
      vertex 24 150 0
      vertex 18.5253 114.117 0
    endloop
  endfacet
  facet normal 0 0 -1
    outer loop
      vertex 17.8223 114.191 0
      vertex 24 150 0
      vertex 18.1777 114.191 0
    endloop
  endfacet
  facet normal 0 0 -1
    outer loop
      vertex 17.4747 114.117 0
      vertex 24 150 0
      vertex 17.8223 114.191 0
    endloop
  endfacet
  facet normal 0 0 -1
    outer loop
      vertex 0 150 0
      vertex 17.4747 114.117 0
      vertex 17.15 113.972 0
    endloop
  endfacet
  facet normal 0 0 -1
    outer loop
      vertex 0 150 0
      vertex 17.15 113.972 0
      vertex 16.8625 113.763 0
    endloop
  endfacet
  facet normal 0 0 -1
    outer loop
      vertex 0 150 0
      vertex 16.8625 113.763 0
      vertex 16.6247 113.499 0
    endloop
  endfacet
  facet normal 0 0 -1
    outer loop
      vertex 0 150 0
      vertex 16.6247 113.499 0
      vertex 16.447 113.191 0
    endloop
  endfacet
  facet normal 0 0 -1
    outer loop
      vertex 0 150 0
      vertex 16.447 113.191 0
      vertex 16.3371 112.853 0
    endloop
  endfacet
  facet normal 0 0 -1
    outer loop
      vertex 16.3371 112.147 0
      vertex 0 150 0
      vertex 16.3 112.5 0
    endloop
  endfacet
  facet normal 0 0 -1
    outer loop
      vertex 17.4747 114.117 0
      vertex 0 150 0
      vertex 24 150 0
    endloop
  endfacet
  facet normal 0 0 -1
    outer loop
      vertex 16.3 112.5 0
      vertex 0 150 0
      vertex 16.3371 112.853 0
    endloop
  endfacet
  facet normal 0 -1 0
    outer loop
      vertex 0 0 2.5
      vertex 0 0 0
      vertex 12 0 2.5
    endloop
  endfacet
  facet normal 0 -1 0
    outer loop
      vertex 12 0 2.5
      vertex 24 0 5
      vertex 12 0 5
    endloop
  endfacet
  facet normal 0 -1 0
    outer loop
      vertex 24 0 0
      vertex 12 0 2.5
      vertex 0 0 0
    endloop
  endfacet
  facet normal 0 -1 0
    outer loop
      vertex 12 0 2.5
      vertex 24 0 0
      vertex 24 0 5
    endloop
  endfacet
  facet normal -1 0 0
    outer loop
      vertex 12 0 2.5
      vertex 12 150 5
      vertex 12 150 2.5
    endloop
  endfacet
  facet normal -1 -0 0
    outer loop
      vertex 12 150 5
      vertex 12 0 2.5
      vertex 12 0 5
    endloop
  endfacet
  facet normal -0 0 1
    outer loop
      vertex 0 150 2.5
      vertex 12 0 2.5
      vertex 12 150 2.5
    endloop
  endfacet
  facet normal 0 0 1
    outer loop
      vertex 12 0 2.5
      vertex 0 150 2.5
      vertex 0 0 2.5
    endloop
  endfacet
  facet normal -0.58779 -0.809014 0
    outer loop
      vertex 18.85 38.9722 0
      vertex 19.1375 38.7633 5
      vertex 18.85 38.9722 5
    endloop
  endfacet
  facet normal -0.58779 -0.809014 -0
    outer loop
      vertex 19.1375 38.7633 5
      vertex 18.85 38.9722 0
      vertex 19.1375 38.7633 0
    endloop
  endfacet
  facet normal 0.994522 -0.104529 0
    outer loop
      vertex 16.3 37.5 5
      vertex 16.3371 37.8535 0
      vertex 16.3371 37.8535 5
    endloop
  endfacet
  facet normal 0.994522 -0.104529 0
    outer loop
      vertex 16.3371 37.8535 0
      vertex 16.3 37.5 5
      vertex 16.3 37.5 0
    endloop
  endfacet
  facet normal -0.994521 0.104534 0
    outer loop
      vertex 19.6628 37.1465 0
      vertex 19.7 37.5 5
      vertex 19.7 37.5 0
    endloop
  endfacet
  facet normal -0.994521 0.104534 0
    outer loop
      vertex 19.7 37.5 5
      vertex 19.6628 37.1465 0
      vertex 19.6628 37.1465 5
    endloop
  endfacet
  facet normal 0.207911 0.978148 -0
    outer loop
      vertex 17.8223 35.8093 0
      vertex 17.4747 35.8832 5
      vertex 17.8223 35.8093 5
    endloop
  endfacet
  facet normal 0.207911 0.978148 0
    outer loop
      vertex 17.4747 35.8832 5
      vertex 17.8223 35.8093 0
      vertex 17.4747 35.8832 0
    endloop
  endfacet
  facet normal -0.951058 -0.309012 0
    outer loop
      vertex 19.6628 37.8535 0
      vertex 19.553 38.1915 5
      vertex 19.553 38.1915 0
    endloop
  endfacet
  facet normal -0.951058 -0.309012 0
    outer loop
      vertex 19.553 38.1915 5
      vertex 19.6628 37.8535 0
      vertex 19.6628 37.8535 5
    endloop
  endfacet
  facet normal 0.406731 -0.913548 0
    outer loop
      vertex 17.15 38.9722 0
      vertex 17.4747 39.1168 5
      vertex 17.15 38.9722 5
    endloop
  endfacet
  facet normal 0.406731 -0.913548 0
    outer loop
      vertex 17.4747 39.1168 5
      vertex 17.15 38.9722 0
      vertex 17.4747 39.1168 0
    endloop
  endfacet
  facet normal 0.951057 -0.309017 0
    outer loop
      vertex 16.3371 37.8535 5
      vertex 16.447 38.1915 0
      vertex 16.447 38.1915 5
    endloop
  endfacet
  facet normal 0.951057 -0.309017 0
    outer loop
      vertex 16.447 38.1915 0
      vertex 16.3371 37.8535 5
      vertex 16.3371 37.8535 0
    endloop
  endfacet
  facet normal -0.743145 0.669131 0
    outer loop
      vertex 19.1375 36.2367 0
      vertex 19.3753 36.5008 5
      vertex 19.3753 36.5008 0
    endloop
  endfacet
  facet normal -0.743145 0.669131 0
    outer loop
      vertex 19.3753 36.5008 5
      vertex 19.1375 36.2367 0
      vertex 19.1375 36.2367 5
    endloop
  endfacet
  facet normal 0.951057 0.309017 0
    outer loop
      vertex 16.447 36.8085 5
      vertex 16.3371 37.1465 0
      vertex 16.3371 37.1465 5
    endloop
  endfacet
  facet normal 0.951057 0.309017 0
    outer loop
      vertex 16.3371 37.1465 0
      vertex 16.447 36.8085 5
      vertex 16.447 36.8085 0
    endloop
  endfacet
  facet normal -0.866022 -0.500005 0
    outer loop
      vertex 19.553 38.1915 0
      vertex 19.3753 38.4992 5
      vertex 19.3753 38.4992 0
    endloop
  endfacet
  facet normal -0.866022 -0.500005 0
    outer loop
      vertex 19.3753 38.4992 5
      vertex 19.553 38.1915 0
      vertex 19.553 38.1915 5
    endloop
  endfacet
  facet normal -0.743145 -0.669131 0
    outer loop
      vertex 19.3753 38.4992 0
      vertex 19.1375 38.7633 5
      vertex 19.1375 38.7633 0
    endloop
  endfacet
  facet normal -0.743145 -0.669131 0
    outer loop
      vertex 19.1375 38.7633 5
      vertex 19.3753 38.4992 0
      vertex 19.3753 38.4992 5
    endloop
  endfacet
  facet normal -0.406733 -0.913547 0
    outer loop
      vertex 18.5253 39.1168 0
      vertex 18.85 38.9722 5
      vertex 18.5253 39.1168 5
    endloop
  endfacet
  facet normal -0.406733 -0.913547 -0
    outer loop
      vertex 18.85 38.9722 5
      vertex 18.5253 39.1168 0
      vertex 18.85 38.9722 0
    endloop
  endfacet
  facet normal 0 -1 0
    outer loop
      vertex 17.8223 39.1907 0
      vertex 18.1777 39.1907 5
      vertex 17.8223 39.1907 5
    endloop
  endfacet
  facet normal 0 -1 -0
    outer loop
      vertex 18.1777 39.1907 5
      vertex 17.8223 39.1907 0
      vertex 18.1777 39.1907 0
    endloop
  endfacet
  facet normal -0.20792 -0.978146 0
    outer loop
      vertex 18.1777 39.1907 0
      vertex 18.5253 39.1168 5
      vertex 18.1777 39.1907 5
    endloop
  endfacet
  facet normal -0.20792 -0.978146 -0
    outer loop
      vertex 18.5253 39.1168 5
      vertex 18.1777 39.1907 0
      vertex 18.5253 39.1168 0
    endloop
  endfacet
  facet normal 0.994522 0.104529 0
    outer loop
      vertex 16.3371 37.1465 5
      vertex 16.3 37.5 0
      vertex 16.3 37.5 5
    endloop
  endfacet
  facet normal 0.994522 0.104529 0
    outer loop
      vertex 16.3 37.5 0
      vertex 16.3371 37.1465 5
      vertex 16.3371 37.1465 0
    endloop
  endfacet
  facet normal 0.866022 -0.500005 0
    outer loop
      vertex 16.447 38.1915 5
      vertex 16.6247 38.4992 0
      vertex 16.6247 38.4992 5
    endloop
  endfacet
  facet normal 0.866022 -0.500005 0
    outer loop
      vertex 16.6247 38.4992 0
      vertex 16.447 38.1915 5
      vertex 16.447 38.1915 0
    endloop
  endfacet
  facet normal 0.58779 -0.809014 0
    outer loop
      vertex 16.8625 38.7633 0
      vertex 17.15 38.9722 5
      vertex 16.8625 38.7633 5
    endloop
  endfacet
  facet normal 0.58779 -0.809014 0
    outer loop
      vertex 17.15 38.9722 5
      vertex 16.8625 38.7633 0
      vertex 17.15 38.9722 0
    endloop
  endfacet
  facet normal 0.207921 -0.978146 0
    outer loop
      vertex 17.4747 39.1168 0
      vertex 17.8223 39.1907 5
      vertex 17.4747 39.1168 5
    endloop
  endfacet
  facet normal 0.207921 -0.978146 0
    outer loop
      vertex 17.8223 39.1907 5
      vertex 17.4747 39.1168 0
      vertex 17.8223 39.1907 0
    endloop
  endfacet
  facet normal 0.743147 -0.669128 0
    outer loop
      vertex 16.6247 38.4992 5
      vertex 16.8625 38.7633 0
      vertex 16.8625 38.7633 5
    endloop
  endfacet
  facet normal 0.743147 -0.669128 0
    outer loop
      vertex 16.8625 38.7633 0
      vertex 16.6247 38.4992 5
      vertex 16.6247 38.4992 0
    endloop
  endfacet
  facet normal -0.994521 -0.104534 0
    outer loop
      vertex 19.7 37.5 0
      vertex 19.6628 37.8535 5
      vertex 19.6628 37.8535 0
    endloop
  endfacet
  facet normal -0.994521 -0.104534 0
    outer loop
      vertex 19.6628 37.8535 5
      vertex 19.7 37.5 0
      vertex 19.7 37.5 5
    endloop
  endfacet
  facet normal -0.20791 0.978148 0
    outer loop
      vertex 18.5253 35.8832 0
      vertex 18.1777 35.8093 5
      vertex 18.5253 35.8832 5
    endloop
  endfacet
  facet normal -0.20791 0.978148 0
    outer loop
      vertex 18.1777 35.8093 5
      vertex 18.5253 35.8832 0
      vertex 18.1777 35.8093 0
    endloop
  endfacet
  facet normal -0.866025 0.500001 0
    outer loop
      vertex 19.3753 36.5008 0
      vertex 19.553 36.8085 5
      vertex 19.553 36.8085 0
    endloop
  endfacet
  facet normal -0.866025 0.500001 0
    outer loop
      vertex 19.553 36.8085 5
      vertex 19.3753 36.5008 0
      vertex 19.3753 36.5008 5
    endloop
  endfacet
  facet normal -0.951058 0.309012 0
    outer loop
      vertex 19.553 36.8085 0
      vertex 19.6628 37.1465 5
      vertex 19.6628 37.1465 0
    endloop
  endfacet
  facet normal -0.951058 0.309012 0
    outer loop
      vertex 19.6628 37.1465 5
      vertex 19.553 36.8085 0
      vertex 19.553 36.8085 5
    endloop
  endfacet
  facet normal -0.406742 0.913543 0
    outer loop
      vertex 18.85 36.0278 0
      vertex 18.5253 35.8832 5
      vertex 18.85 36.0278 5
    endloop
  endfacet
  facet normal -0.406742 0.913543 0
    outer loop
      vertex 18.5253 35.8832 5
      vertex 18.85 36.0278 0
      vertex 18.5253 35.8832 0
    endloop
  endfacet
  facet normal -0.587783 0.809019 0
    outer loop
      vertex 19.1375 36.2367 0
      vertex 18.85 36.0278 5
      vertex 19.1375 36.2367 5
    endloop
  endfacet
  facet normal -0.587783 0.809019 0
    outer loop
      vertex 18.85 36.0278 5
      vertex 19.1375 36.2367 0
      vertex 18.85 36.0278 0
    endloop
  endfacet
  facet normal 0 1 -0
    outer loop
      vertex 18.1777 35.8093 0
      vertex 17.8223 35.8093 5
      vertex 18.1777 35.8093 5
    endloop
  endfacet
  facet normal 0 1 0
    outer loop
      vertex 17.8223 35.8093 5
      vertex 18.1777 35.8093 0
      vertex 17.8223 35.8093 0
    endloop
  endfacet
  facet normal 0.587783 0.809019 -0
    outer loop
      vertex 17.15 36.0278 0
      vertex 16.8625 36.2367 5
      vertex 17.15 36.0278 5
    endloop
  endfacet
  facet normal 0.587783 0.809019 0
    outer loop
      vertex 16.8625 36.2367 5
      vertex 17.15 36.0278 0
      vertex 16.8625 36.2367 0
    endloop
  endfacet
  facet normal 0.866025 0.500001 0
    outer loop
      vertex 16.6247 36.5008 5
      vertex 16.447 36.8085 0
      vertex 16.447 36.8085 5
    endloop
  endfacet
  facet normal 0.866025 0.500001 0
    outer loop
      vertex 16.447 36.8085 0
      vertex 16.6247 36.5008 5
      vertex 16.6247 36.5008 0
    endloop
  endfacet
  facet normal 0.40674 0.913544 -0
    outer loop
      vertex 17.4747 35.8832 0
      vertex 17.15 36.0278 5
      vertex 17.4747 35.8832 5
    endloop
  endfacet
  facet normal 0.40674 0.913544 0
    outer loop
      vertex 17.15 36.0278 5
      vertex 17.4747 35.8832 0
      vertex 17.15 36.0278 0
    endloop
  endfacet
  facet normal 0.743147 0.669128 0
    outer loop
      vertex 16.8625 36.2367 5
      vertex 16.6247 36.5008 0
      vertex 16.6247 36.5008 5
    endloop
  endfacet
  facet normal 0.743147 0.669128 0
    outer loop
      vertex 16.6247 36.5008 0
      vertex 16.8625 36.2367 5
      vertex 16.8625 36.2367 0
    endloop
  endfacet
  facet normal -0.994521 -0.104536 0
    outer loop
      vertex 19.7 112.5 0
      vertex 19.6628 112.853 5
      vertex 19.6628 112.853 0
    endloop
  endfacet
  facet normal -0.994521 -0.104536 0
    outer loop
      vertex 19.6628 112.853 5
      vertex 19.7 112.5 0
      vertex 19.7 112.5 5
    endloop
  endfacet
  facet normal 0.994522 0.104528 0
    outer loop
      vertex 16.3371 112.147 5
      vertex 16.3 112.5 0
      vertex 16.3 112.5 5
    endloop
  endfacet
  facet normal 0.994522 0.104528 0
    outer loop
      vertex 16.3 112.5 0
      vertex 16.3371 112.147 5
      vertex 16.3371 112.147 0
    endloop
  endfacet
  facet normal 0 -1 0
    outer loop
      vertex 17.8223 114.191 0
      vertex 18.1777 114.191 5
      vertex 17.8223 114.191 5
    endloop
  endfacet
  facet normal 0 -1 -0
    outer loop
      vertex 18.1777 114.191 5
      vertex 17.8223 114.191 0
      vertex 18.1777 114.191 0
    endloop
  endfacet
  facet normal 0.743143 0.669133 0
    outer loop
      vertex 16.8625 111.237 5
      vertex 16.6247 111.501 0
      vertex 16.6247 111.501 5
    endloop
  endfacet
  facet normal 0.743143 0.669133 0
    outer loop
      vertex 16.6247 111.501 0
      vertex 16.8625 111.237 5
      vertex 16.8625 111.237 0
    endloop
  endfacet
  facet normal -0.74314 -0.669136 0
    outer loop
      vertex 19.3753 113.499 0
      vertex 19.1375 113.763 5
      vertex 19.1375 113.763 0
    endloop
  endfacet
  facet normal -0.74314 -0.669136 0
    outer loop
      vertex 19.1375 113.763 5
      vertex 19.3753 113.499 0
      vertex 19.3753 113.499 5
    endloop
  endfacet
  facet normal -0.951059 -0.309009 0
    outer loop
      vertex 19.6628 112.853 0
      vertex 19.553 113.191 5
      vertex 19.553 113.191 0
    endloop
  endfacet
  facet normal -0.951059 -0.309009 0
    outer loop
      vertex 19.553 113.191 5
      vertex 19.6628 112.853 0
      vertex 19.6628 112.853 5
    endloop
  endfacet
  facet normal 0.743143 -0.669133 0
    outer loop
      vertex 16.6247 113.499 5
      vertex 16.8625 113.763 0
      vertex 16.8625 113.763 5
    endloop
  endfacet
  facet normal 0.743143 -0.669133 0
    outer loop
      vertex 16.8625 113.763 0
      vertex 16.6247 113.499 5
      vertex 16.6247 113.499 0
    endloop
  endfacet
  facet normal 0.40674 -0.913544 0
    outer loop
      vertex 17.15 113.972 0
      vertex 17.4747 114.117 5
      vertex 17.15 113.972 5
    endloop
  endfacet
  facet normal 0.40674 -0.913544 0
    outer loop
      vertex 17.4747 114.117 5
      vertex 17.15 113.972 0
      vertex 17.4747 114.117 0
    endloop
  endfacet
  facet normal -0.74314 0.669136 0
    outer loop
      vertex 19.1375 111.237 0
      vertex 19.3753 111.501 5
      vertex 19.3753 111.501 0
    endloop
  endfacet
  facet normal -0.74314 0.669136 0
    outer loop
      vertex 19.3753 111.501 5
      vertex 19.1375 111.237 0
      vertex 19.1375 111.237 5
    endloop
  endfacet
  facet normal -0.866025 0.500001 0
    outer loop
      vertex 19.3753 111.501 0
      vertex 19.553 111.809 5
      vertex 19.553 111.809 0
    endloop
  endfacet
  facet normal -0.866025 0.500001 0
    outer loop
      vertex 19.553 111.809 5
      vertex 19.3753 111.501 0
      vertex 19.3753 111.501 5
    endloop
  endfacet
  facet normal 0.951056 0.30902 0
    outer loop
      vertex 16.447 111.809 5
      vertex 16.3371 112.147 0
      vertex 16.3371 112.147 5
    endloop
  endfacet
  facet normal 0.951056 0.30902 0
    outer loop
      vertex 16.3371 112.147 0
      vertex 16.447 111.809 5
      vertex 16.447 111.809 0
    endloop
  endfacet
  facet normal -0.866025 -0.500001 0
    outer loop
      vertex 19.553 113.191 0
      vertex 19.3753 113.499 5
      vertex 19.3753 113.499 0
    endloop
  endfacet
  facet normal -0.866025 -0.500001 0
    outer loop
      vertex 19.3753 113.499 5
      vertex 19.553 113.191 0
      vertex 19.553 113.191 5
    endloop
  endfacet
  facet normal -0.406742 -0.913543 0
    outer loop
      vertex 18.5253 114.117 0
      vertex 18.85 113.972 5
      vertex 18.5253 114.117 5
    endloop
  endfacet
  facet normal -0.406742 -0.913543 -0
    outer loop
      vertex 18.85 113.972 5
      vertex 18.5253 114.117 0
      vertex 18.85 113.972 0
    endloop
  endfacet
  facet normal -0.20791 -0.978148 0
    outer loop
      vertex 18.1777 114.191 0
      vertex 18.5253 114.117 5
      vertex 18.1777 114.191 5
    endloop
  endfacet
  facet normal -0.20791 -0.978148 -0
    outer loop
      vertex 18.5253 114.117 5
      vertex 18.1777 114.191 0
      vertex 18.5253 114.117 0
    endloop
  endfacet
  facet normal -0.58779 -0.809014 0
    outer loop
      vertex 18.85 113.972 0
      vertex 19.1375 113.763 5
      vertex 18.85 113.972 5
    endloop
  endfacet
  facet normal -0.58779 -0.809014 -0
    outer loop
      vertex 19.1375 113.763 5
      vertex 18.85 113.972 0
      vertex 19.1375 113.763 0
    endloop
  endfacet
  facet normal 0.951058 -0.309014 0
    outer loop
      vertex 16.3371 112.853 5
      vertex 16.447 113.191 0
      vertex 16.447 113.191 5
    endloop
  endfacet
  facet normal 0.951058 -0.309014 0
    outer loop
      vertex 16.447 113.191 0
      vertex 16.3371 112.853 5
      vertex 16.3371 112.853 0
    endloop
  endfacet
  facet normal 0.866025 -0.500001 0
    outer loop
      vertex 16.447 113.191 5
      vertex 16.6247 113.499 0
      vertex 16.6247 113.499 5
    endloop
  endfacet
  facet normal 0.866025 -0.500001 0
    outer loop
      vertex 16.6247 113.499 0
      vertex 16.447 113.191 5
      vertex 16.447 113.191 0
    endloop
  endfacet
  facet normal 0.994522 -0.10453 0
    outer loop
      vertex 16.3 112.5 5
      vertex 16.3371 112.853 0
      vertex 16.3371 112.853 5
    endloop
  endfacet
  facet normal 0.994522 -0.10453 0
    outer loop
      vertex 16.3371 112.853 0
      vertex 16.3 112.5 5
      vertex 16.3 112.5 0
    endloop
  endfacet
  facet normal 0.58779 -0.809014 0
    outer loop
      vertex 16.8625 113.763 0
      vertex 17.15 113.972 5
      vertex 16.8625 113.763 5
    endloop
  endfacet
  facet normal 0.58779 -0.809014 0
    outer loop
      vertex 17.15 113.972 5
      vertex 16.8625 113.763 0
      vertex 17.15 113.972 0
    endloop
  endfacet
  facet normal 0.207911 -0.978148 0
    outer loop
      vertex 17.4747 114.117 0
      vertex 17.8223 114.191 5
      vertex 17.4747 114.117 5
    endloop
  endfacet
  facet normal 0.207911 -0.978148 0
    outer loop
      vertex 17.8223 114.191 5
      vertex 17.4747 114.117 0
      vertex 17.8223 114.191 0
    endloop
  endfacet
  facet normal -0.994521 0.104533 0
    outer loop
      vertex 19.6628 112.147 0
      vertex 19.7 112.5 5
      vertex 19.7 112.5 0
    endloop
  endfacet
  facet normal -0.994521 0.104533 0
    outer loop
      vertex 19.7 112.5 5
      vertex 19.6628 112.147 0
      vertex 19.6628 112.147 5
    endloop
  endfacet
  facet normal -0.20791 0.978148 0
    outer loop
      vertex 18.5253 110.883 0
      vertex 18.1777 110.809 5
      vertex 18.5253 110.883 5
    endloop
  endfacet
  facet normal -0.20791 0.978148 0
    outer loop
      vertex 18.1777 110.809 5
      vertex 18.5253 110.883 0
      vertex 18.1777 110.809 0
    endloop
  endfacet
  facet normal -0.58779 0.809014 0
    outer loop
      vertex 19.1375 111.237 0
      vertex 18.85 111.028 5
      vertex 19.1375 111.237 5
    endloop
  endfacet
  facet normal -0.58779 0.809014 0
    outer loop
      vertex 18.85 111.028 5
      vertex 19.1375 111.237 0
      vertex 18.85 111.028 0
    endloop
  endfacet
  facet normal 0.58779 0.809014 -0
    outer loop
      vertex 17.15 111.028 0
      vertex 16.8625 111.237 5
      vertex 17.15 111.028 5
    endloop
  endfacet
  facet normal 0.58779 0.809014 0
    outer loop
      vertex 16.8625 111.237 5
      vertex 17.15 111.028 0
      vertex 16.8625 111.237 0
    endloop
  endfacet
  facet normal 0.207911 0.978148 -0
    outer loop
      vertex 17.8223 110.809 0
      vertex 17.4747 110.883 5
      vertex 17.8223 110.809 5
    endloop
  endfacet
  facet normal 0.207911 0.978148 0
    outer loop
      vertex 17.4747 110.883 5
      vertex 17.8223 110.809 0
      vertex 17.4747 110.883 0
    endloop
  endfacet
  facet normal 0.866025 0.500001 0
    outer loop
      vertex 16.6247 111.501 5
      vertex 16.447 111.809 0
      vertex 16.447 111.809 5
    endloop
  endfacet
  facet normal 0.866025 0.500001 0
    outer loop
      vertex 16.447 111.809 0
      vertex 16.6247 111.501 5
      vertex 16.6247 111.501 0
    endloop
  endfacet
  facet normal -0.406742 0.913543 0
    outer loop
      vertex 18.85 111.028 0
      vertex 18.5253 110.883 5
      vertex 18.85 111.028 5
    endloop
  endfacet
  facet normal -0.406742 0.913543 0
    outer loop
      vertex 18.5253 110.883 5
      vertex 18.85 111.028 0
      vertex 18.5253 110.883 0
    endloop
  endfacet
  facet normal -0.951057 0.309015 0
    outer loop
      vertex 19.553 111.809 0
      vertex 19.6628 112.147 5
      vertex 19.6628 112.147 0
    endloop
  endfacet
  facet normal -0.951057 0.309015 0
    outer loop
      vertex 19.6628 112.147 5
      vertex 19.553 111.809 0
      vertex 19.553 111.809 5
    endloop
  endfacet
  facet normal 0.40674 0.913544 -0
    outer loop
      vertex 17.4747 110.883 0
      vertex 17.15 111.028 5
      vertex 17.4747 110.883 5
    endloop
  endfacet
  facet normal 0.40674 0.913544 0
    outer loop
      vertex 17.15 111.028 5
      vertex 17.4747 110.883 0
      vertex 17.15 111.028 0
    endloop
  endfacet
  facet normal 0 1 -0
    outer loop
      vertex 18.1777 110.809 0
      vertex 17.8223 110.809 5
      vertex 18.1777 110.809 5
    endloop
  endfacet
  facet normal 0 1 0
    outer loop
      vertex 17.8223 110.809 5
      vertex 18.1777 110.809 0
      vertex 17.8223 110.809 0
    endloop
  endfacet
endsolid OpenSCAD_Model
