  0
SECTION
  2
HEADER
  9
$ACADVER
  1
AC1009
  9
$EXTMIN
 10
0.0
 20
0.0
 30
0.0
  9
$EXTMAX
 10
1000.0
 20
1000.0
 30
0.0
  9
$FILLMODE
 70
 0
  9
$SPLFRAME
 70
 1
  0
ENDSEC
  0
SECTION
  2
TABLES
  0
TABLE
  2
LAYER
 70
1
  0
LAYER
  2
0
 70
     0
 62
     7
  6
CONTINUOUS
  0
ENDTAB
  0
ENDSEC
  0
SECTION
  2
ENTITIES
  0
LINE
  8
0
 62
     187
 10
-20.621
 20
156.887
 30
0.0
 11
154.942
 21
156.887
 31
0.0
  0
LINE
  8
0
 62
     187
 10
154.942
 20
156.887
 30
0.0
 11
154.942
 21
-6.89158
 31
0.0
  0
LINE
  8
0
 62
     187
 10
154.942
 20
-6.89158
 30
0.0
 11
-20.621
 21
-6.89158
 31
0.0
  0
LINE
  8
0
 62
     187
 10
-20.621
 20
-6.89158
 30
0.0
 11
-20.621
 21
156.887
 31
0.0
  0
LINE
  8
0
 62
     7
 10
-11.9944
 20
72.4958
 30
0.0
 11
34.9622
 21
72.4958
 31
0.0
  0
LINE
  8
0
 62
     7
 10
34.9622
 20
72.4958
 30
0.0
 11
56.5824
 21
138.768
 31
0.0
  0
LINE
  8
0
 62
     7
 10
56.5824
 20
138.768
 30
0.0
 11
90.9754
 21
0.493339
 31
0.0
  0
LINE
  8
0
 62
     7
 10
90.9754
 20
0.493339
 30
0.0
 11
109.867
 21
72.8486
 31
0.0
  0
LINE
  8
0
 62
     7
 10
109.867
 20
72.8486
 30
0.0
 11
152.4
 21
72.8486
 31
0.0
  0
LINE
  8
0
 62
     187
 10
186.417
 20
75.3664
 30
0.0
 11
186.417
 21
124.161
 31
0.0
  0
LINE
  8
0
 62
     187
 10
186.417
 20
124.161
 30
0.0
 11
221.059
 21
124.161
 31
0.0
  0
LINE
  8
0
 62
     187
 10
221.059
 20
124.161
 30
0.0
 11
228.093
 21
123.771
 31
0.0
  0
LINE
  8
0
 62
     187
 10
228.093
 20
123.771
 30
0.0
 11
234.114
 21
122.6
 31
0.0
  0
LINE
  8
0
 62
     187
 10
234.114
 20
122.6
 30
0.0
 11
239.123
 21
120.649
 31
0.0
  0
LINE
  8
0
 62
     187
 10
239.123
 20
120.649
 30
0.0
 11
243.119
 21
117.915
 31
0.0
  0
LINE
  8
0
 62
     187
 10
243.119
 20
117.915
 30
0.0
 11
246.169
 21
114.445
 31
0.0
  0
LINE
  8
0
 62
     187
 10
246.169
 20
114.445
 30
0.0
 11
248.348
 21
110.262
 31
0.0
  0
LINE
  8
0
 62
     187
 10
248.348
 20
110.262
 30
0.0
 11
249.658
 21
105.369
 31
0.0
  0
LINE
  8
0
 62
     187
 10
249.658
 20
105.369
 30
0.0
 11
250.095
 21
99.7631
 31
0.0
  0
LINE
  8
0
 62
     187
 10
250.095
 20
99.7631
 30
0.0
 11
249.658
 21
94.149
 31
0.0
  0
LINE
  8
0
 62
     187
 10
249.658
 20
94.149
 30
0.0
 11
248.348
 21
89.2348
 31
0.0
  0
LINE
  8
0
 62
     187
 10
248.348
 20
89.2348
 30
0.0
 11
246.169
 21
85.0194
 31
0.0
  0
LINE
  8
0
 62
     187
 10
246.169
 20
85.0194
 30
0.0
 11
243.119
 21
81.5012
 31
0.0
  0
LINE
  8
0
 62
     187
 10
243.119
 20
81.5012
 30
0.0
 11
239.123
 21
78.7481
 31
0.0
  0
LINE
  8
0
 62
     187
 10
239.123
 20
78.7481
 30
0.0
 11
234.114
 21
76.8078
 31
0.0
  0
LINE
  8
0
 62
     187
 10
234.114
 20
76.8078
 30
0.0
 11
228.093
 21
75.6804
 31
0.0
  0
LINE
  8
0
 62
     187
 10
228.093
 20
75.6804
 30
0.0
 11
221.059
 21
75.3664
 31
0.0
  0
LINE
  8
0
 62
     187
 10
221.059
 20
75.3664
 30
0.0
 11
186.417
 21
75.3664
 31
0.0
  0
LINE
  8
0
 62
     187
 10
168.722
 20
139.062
 30
0.0
 11
168.722
 21
6.09921
 31
0.0
  0
LINE
  8
0
 62
     187
 10
168.722
 20
6.09921
 30
0.0
 11
186.417
 21
6.09921
 31
0.0
  0
LINE
  8
0
 62
     187
 10
186.417
 20
6.09921
 30
0.0
 11
186.417
 21
60.482
 31
0.0
  0
LINE
  8
0
 62
     187
 10
186.417
 20
60.482
 30
0.0
 11
227.013
 21
60.482
 31
0.0
  0
LINE
  8
0
 62
     187
 10
227.013
 20
60.482
 30
0.0
 11
236.454
 21
61.0457
 31
0.0
  0
LINE
  8
0
 62
     187
 10
236.454
 20
61.0457
 30
0.0
 11
244.675
 21
62.9377
 31
0.0
  0
LINE
  8
0
 62
     187
 10
244.675
 20
62.9377
 30
0.0
 11
251.674
 21
66.1596
 31
0.0
  0
LINE
  8
0
 62
     187
 10
251.674
 20
66.1596
 30
0.0
 11
257.455
 21
70.7087
 31
0.0
  0
LINE
  8
0
 62
     187
 10
257.455
 20
70.7087
 30
0.0
 11
261.975
 21
76.4342
 31
0.0
  0
LINE
  8
0
 62
     187
 10
261.975
 20
76.4342
 30
0.0
 11
265.205
 21
83.1854
 31
0.0
  0
LINE
  8
0
 62
     187
 10
265.205
 20
83.1854
 30
0.0
 11
267.144
 21
90.963
 31
0.0
  0
LINE
  8
0
 62
     187
 10
267.144
 20
90.963
 30
0.0
 11
267.79
 21
99.7631
 31
0.0
  0
LINE
  8
0
 62
     187
 10
267.79
 20
99.7631
 30
0.0
 11
267.144
 21
108.559
 31
0.0
  0
LINE
  8
0
 62
     187
 10
267.144
 20
108.559
 30
0.0
 11
265.205
 21
116.316
 31
0.0
  0
LINE
  8
0
 62
     187
 10
265.205
 20
116.316
 30
0.0
 11
261.975
 21
123.039
 31
0.0
  0
LINE
  8
0
 62
     187
 10
261.975
 20
123.039
 30
0.0
 11
257.455
 21
128.727
 31
0.0
  0
LINE
  8
0
 62
     187
 10
257.455
 20
128.727
 30
0.0
 11
251.674
 21
133.248
 31
0.0
  0
LINE
  8
0
 62
     187
 10
251.674
 20
133.248
 30
0.0
 11
244.675
 21
136.478
 31
0.0
  0
LINE
  8
0
 62
     187
 10
244.675
 20
136.478
 30
0.0
 11
236.454
 21
138.417
 31
0.0
  0
LINE
  8
0
 62
     187
 10
236.454
 20
138.417
 30
0.0
 11
227.013
 21
139.062
 31
0.0
  0
LINE
  8
0
 62
     187
 10
227.013
 20
139.062
 30
0.0
 11
168.722
 21
139.062
 31
0.0
  0
LINE
  8
0
 62
     187
 10
289.387
 20
139.062
 30
0.0
 11
289.387
 21
6.09921
 31
0.0
  0
LINE
  8
0
 62
     187
 10
289.387
 20
6.09921
 30
0.0
 11
377.479
 21
6.09921
 31
0.0
  0
LINE
  8
0
 62
     187
 10
377.479
 20
6.09921
 30
0.0
 11
377.479
 21
21.0013
 31
0.0
  0
LINE
  8
0
 62
     187
 10
377.479
 20
21.0013
 30
0.0
 11
307.082
 21
21.0013
 31
0.0
  0
LINE
  8
0
 62
     187
 10
307.082
 20
21.0013
 30
0.0
 11
307.082
 21
139.062
 31
0.0
  0
LINE
  8
0
 62
     187
 10
307.082
 20
139.062
 30
0.0
 11
289.387
 21
139.062
 31
0.0
  0
LINE
  8
0
 62
     187
 10
469.84
 20
100.128
 30
0.0
 11
486.586
 21
100.128
 31
0.0
  0
LINE
  8
0
 62
     187
 10
486.586
 20
100.128
 30
0.0
 11
486.184
 21
105.432
 31
0.0
  0
LINE
  8
0
 62
     187
 10
486.184
 20
105.432
 30
0.0
 11
485.355
 21
110.349
 31
0.0
  0
LINE
  8
0
 62
     187
 10
485.355
 20
110.349
 30
0.0
 11
484.092
 21
114.883
 31
0.0
  0
LINE
  8
0
 62
     187
 10
484.092
 20
114.883
 30
0.0
 11
482.402
 21
119.029
 31
0.0
  0
LINE
  8
0
 62
     187
 10
482.402
 20
119.029
 30
0.0
 11
477.887
 21
126.275
 31
0.0
  0
LINE
  8
0
 62
     187
 10
477.887
 20
126.275
 30
0.0
 11
471.978
 21
132.159
 31
0.0
  0
LINE
  8
0
 62
     187
 10
471.978
 20
132.159
 30
0.0
 11
464.824
 21
136.678
 31
0.0
  0
LINE
  8
0
 62
     187
 10
464.824
 20
136.678
 30
0.0
 11
456.6
 21
139.792
 31
0.0
  0
LINE
  8
0
 62
     187
 10
456.6
 20
139.792
 30
0.0
 11
447.481
 21
141.614
 31
0.0
  0
LINE
  8
0
 62
     187
 10
447.481
 20
141.614
 30
0.0
 11
437.628
 21
142.222
 31
0.0
  0
LINE
  8
0
 62
     187
 10
437.628
 20
142.222
 30
0.0
 11
428.611
 21
141.637
 31
0.0
  0
LINE
  8
0
 62
     187
 10
428.611
 20
141.637
 30
0.0
 11
419.841
 21
139.883
 31
0.0
  0
LINE
  8
0
 62
     187
 10
419.841
 20
139.883
 30
0.0
 11
411.642
 21
136.956
 31
0.0
  0
LINE
  8
0
 62
     187
 10
411.642
 20
136.956
 30
0.0
 11
404.372
 21
132.817
 31
0.0
  0
LINE
  8
0
 62
     187
 10
404.372
 20
132.817
 30
0.0
 11
398.254
 21
127.415
 31
0.0
  0
LINE
  8
0
 62
     187
 10
398.254
 20
127.415
 30
0.0
 11
393.488
 21
120.709
 31
0.0
  0
LINE
  8
0
 62
     187
 10
393.488
 20
120.709
 30
0.0
 11
391.696
 21
116.862
 31
0.0
  0
LINE
  8
0
 62
     187
 10
391.696
 20
116.862
 30
0.0
 11
390.419
 21
112.678
 31
0.0
  0
LINE
  8
0
 62
     187
 10
390.419
 20
112.678
 30
0.0
 11
389.654
 21
108.16
 31
0.0
  0
LINE
  8
0
 62
     187
 10
389.654
 20
108.16
 30
0.0
 11
389.396
 21
103.306
 31
0.0
  0
LINE
  8
0
 62
     187
 10
389.396
 20
103.306
 30
0.0
 11
389.622
 21
98.9309
 31
0.0
  0
LINE
  8
0
 62
     187
 10
389.622
 20
98.9309
 30
0.0
 11
390.299
 21
94.9399
 31
0.0
  0
LINE
  8
0
 62
     187
 10
390.299
 20
94.9399
 30
0.0
 11
391.432
 21
91.3349
 31
0.0
  0
LINE
  8
0
 62
     187
 10
391.432
 20
91.3349
 30
0.0
 11
393.012
 21
88.1119
 31
0.0
  0
LINE
  8
0
 62
     187
 10
393.012
 20
88.1119
 30
0.0
 11
397.245
 21
82.6244
 31
0.0
  0
LINE
  8
0
 62
     187
 10
397.245
 20
82.6244
 30
0.0
 11
402.692
 21
78.2507
 31
0.0
  0
LINE
  8
0
 62
     187
 10
402.692
 20
78.2507
 30
0.0
 11
409.145
 21
74.8026
 31
0.0
  0
LINE
  8
0
 62
     187
 10
409.145
 20
74.8026
 30
0.0
 11
416.387
 21
72.0975
 31
0.0
  0
LINE
  8
0
 62
     187
 10
416.387
 20
72.0975
 30
0.0
 11
431.927
 21
68.006
 31
0.0
  0
LINE
  8
0
 62
     187
 10
431.927
 20
68.006
 30
0.0
 11
447.488
 21
64.5735
 31
0.0
  0
LINE
  8
0
 62
     187
 10
447.488
 20
64.5735
 30
0.0
 11
454.72
 21
62.636
 31
0.0
  0
LINE
  8
0
 62
     187
 10
454.72
 20
62.636
 30
0.0
 11
461.165
 21
60.1899
 31
0.0
  0
LINE
  8
0
 62
     187
 10
461.165
 20
60.1899
 30
0.0
 11
466.619
 21
57.0893
 31
0.0
  0
LINE
  8
0
 62
     187
 10
466.619
 20
57.0893
 30
0.0
 11
470.863
 21
53.1964
 31
0.0
  0
LINE
  8
0
 62
     187
 10
470.863
 20
53.1964
 30
0.0
 11
472.451
 21
50.8977
 31
0.0
  0
LINE
  8
0
 62
     187
 10
472.451
 20
50.8977
 30
0.0
 11
473.587
 21
48.2713
 31
0.0
  0
LINE
  8
0
 62
     187
 10
473.587
 20
48.2713
 30
0.0
 11
474.267
 21
45.3182
 31
0.0
  0
LINE
  8
0
 62
     187
 10
474.267
 20
45.3182
 30
0.0
 11
474.497
 21
42.0384
 31
0.0
  0
LINE
  8
0
 62
     187
 10
474.497
 20
42.0384
 30
0.0
 11
473.745
 21
35.4224
 31
0.0
  0
LINE
  8
0
 62
     187
 10
473.745
 20
35.4224
 30
0.0
 11
471.502
 21
30.1143
 31
0.0
  0
LINE
  8
0
 62
     187
 10
471.502
 20
30.1143
 30
0.0
 11
468.055
 21
25.9443
 31
0.0
  0
LINE
  8
0
 62
     187
 10
468.055
 20
25.9443
 30
0.0
 11
463.684
 21
22.7542
 31
0.0
  0
LINE
  8
0
 62
     187
 10
463.684
 20
22.7542
 30
0.0
 11
458.537
 21
20.457
 31
0.0
  0
LINE
  8
0
 62
     187
 10
458.537
 20
20.457
 30
0.0
 11
452.783
 21
18.937
 31
0.0
  0
LINE
  8
0
 62
     187
 10
452.783
 20
18.937
 30
0.0
 11
440.785
 21
17.8235
 31
0.0
  0
LINE
  8
0
 62
     187
 10
440.785
 20
17.8235
 30
0.0
 11
433.426
 21
18.2907
 31
0.0
  0
LINE
  8
0
 62
     187
 10
433.426
 20
18.2907
 30
0.0
 11
426.251
 21
19.6867
 31
0.0
  0
LINE
  8
0
 62
     187
 10
426.251
 20
19.6867
 30
0.0
 11
419.619
 21
22.061
 31
0.0
  0
LINE
  8
0
 62
     187
 10
419.619
 20
22.061
 30
0.0
 11
413.868
 21
25.4565
 31
0.0
  0
LINE
  8
0
 62
     187
 10
413.868
 20
25.4565
 30
0.0
 11
409.078
 21
29.9117
 31
0.0
  0
LINE
  8
0
 62
     187
 10
409.078
 20
29.9117
 30
0.0
 11
405.303
 21
35.4281
 31
0.0
  0
LINE
  8
0
 62
     187
 10
405.303
 20
35.4281
 30
0.0
 11
402.865
 21
42.0564
 31
0.0
  0
LINE
  8
0
 62
     187
 10
402.865
 20
42.0564
 30
0.0
 11
402.054
 21
49.8546
 31
0.0
  0
LINE
  8
0
 62
     187
 10
402.054
 20
49.8546
 30
0.0
 11
385.29
 21
49.8546
 31
0.0
  0
LINE
  8
0
 62
     187
 10
385.29
 20
49.8546
 30
0.0
 11
385.561
 21
44.0048
 31
0.0
  0
LINE
  8
0
 62
     187
 10
385.561
 20
44.0048
 30
0.0
 11
386.383
 21
38.5632
 31
0.0
  0
LINE
  8
0
 62
     187
 10
386.383
 20
38.5632
 30
0.0
 11
387.752
 21
33.5318
 31
0.0
  0
LINE
  8
0
 62
     187
 10
387.752
 20
33.5318
 30
0.0
 11
389.671
 21
28.9085
 31
0.0
  0
LINE
  8
0
 62
     187
 10
389.671
 20
28.9085
 30
0.0
 11
392.06
 21
24.6862
 31
0.0
  0
LINE
  8
0
 62
     187
 10
392.06
 20
24.6862
 30
0.0
 11
394.843
 21
20.8594
 31
0.0
  0
LINE
  8
0
 62
     187
 10
394.843
 20
20.8594
 30
0.0
 11
398.022
 21
17.428
 31
0.0
  0
LINE
  8
0
 62
     187
 10
398.022
 20
17.428
 30
0.0
 11
401.595
 21
14.3909
 31
0.0
  0
LINE
  8
0
 62
     187
 10
401.595
 20
14.3909
 30
0.0
 11
409.737
 21
9.43268
 31
0.0
  0
LINE
  8
0
 62
     187
 10
409.737
 20
9.43268
 30
0.0
 11
419.089
 21
5.91728
 31
0.0
  0
LINE
  8
0
 62
     187
 10
419.089
 20
5.91728
 30
0.0
 11
429.355
 21
3.82129
 31
0.0
  0
LINE
  8
0
 62
     187
 10
429.355
 20
3.82129
 30
0.0
 11
440.221
 21
3.12263
 31
0.0
  0
LINE
  8
0
 62
     187
 10
440.221
 20
3.12263
 30
0.0
 11
449.372
 21
3.65732
 31
0.0
  0
LINE
  8
0
 62
     187
 10
449.372
 20
3.65732
 30
0.0
 11
458.572
 21
5.25999
 31
0.0
  0
LINE
  8
0
 62
     187
 10
458.572
 20
5.25999
 30
0.0
 11
467.342
 21
8.04774
 31
0.0
  0
LINE
  8
0
 62
     187
 10
467.342
 20
8.04774
 30
0.0
 11
475.227
 21
12.1447
 31
0.0
  0
LINE
  8
0
 62
     187
 10
475.227
 20
12.1447
 30
0.0
 11
482
 21
17.5893
 31
0.0
  0
LINE
  8
0
 62
     187
 10
482
 20
17.5893
 30
0.0
 11
487.426
 21
24.434
 31
0.0
  0
LINE
  8
0
 62
     187
 10
487.426
 20
24.434
 30
0.0
 11
489.5
 21
28.3986
 31
0.0
  0
LINE
  8
0
 62
     187
 10
489.5
 20
28.3986
 30
0.0
 11
490.986
 21
32.7477
 31
0.0
  0
LINE
  8
0
 62
     187
 10
490.986
 20
32.7477
 30
0.0
 11
491.875
 21
37.484
 31
0.0
  0
LINE
  8
0
 62
     187
 10
491.875
 20
37.484
 30
0.0
 11
492.174
 21
42.605
 31
0.0
  0
LINE
  8
0
 62
     187
 10
492.174
 20
42.605
 30
0.0
 11
491.945
 21
47.3273
 31
0.0
  0
LINE
  8
0
 62
     187
 10
491.945
 20
47.3273
 30
0.0
 11
491.264
 21
51.6308
 31
0.0
  0
LINE
  8
0
 62
     187
 10
491.264
 20
51.6308
 30
0.0
 11
490.128
 21
55.517
 31
0.0
  0
LINE
  8
0
 62
     187
 10
490.128
 20
55.517
 30
0.0
 11
488.541
 21
58.9855
 31
0.0
  0
LINE
  8
0
 62
     187
 10
488.541
 20
58.9855
 30
0.0
 11
484.311
 21
64.9443
 31
0.0
  0
LINE
  8
0
 62
     187
 10
484.311
 20
64.9443
 30
0.0
 11
478.861
 21
69.7784
 31
0.0
  0
LINE
  8
0
 62
     187
 10
478.861
 20
69.7784
 30
0.0
 11
472.415
 21
73.6205
 31
0.0
  0
LINE
  8
0
 62
     187
 10
472.415
 20
73.6205
 30
0.0
 11
465.183
 21
76.5708
 31
0.0
  0
LINE
  8
0
 62
     187
 10
465.183
 20
76.5708
 30
0.0
 11
449.622
 21
80.9544
 31
0.0
  0
LINE
  8
0
 62
     187
 10
449.622
 20
80.9544
 30
0.0
 11
434.082
 21
84.4049
 31
0.0
  0
LINE
  8
0
 62
     187
 10
434.082
 20
84.4049
 30
0.0
 11
426.84
 21
86.2005
 31
0.0
  0
LINE
  8
0
 62
     187
 10
426.84
 20
86.2005
 30
0.0
 11
420.388
 21
88.404
 31
0.0
  0
LINE
  8
0
 62
     187
 10
420.388
 20
88.404
 30
0.0
 11
414.941
 21
91.1779
 31
0.0
  0
LINE
  8
0
 62
     187
 10
414.941
 20
91.1779
 30
0.0
 11
410.707
 21
94.6506
 31
0.0
  0
LINE
  8
0
 62
     187
 10
410.707
 20
94.6506
 30
0.0
 11
409.116
 21
96.7038
 31
0.0
  0
LINE
  8
0
 62
     187
 10
409.116
 20
96.7038
 30
0.0
 11
407.98
 21
99.0466
 31
0.0
  0
LINE
  8
0
 62
     187
 10
407.98
 20
99.0466
 30
0.0
 11
407.3
 21
101.68
 31
0.0
  0
LINE
  8
0
 62
     187
 10
407.3
 20
101.68
 30
0.0
 11
407.074
 21
104.603
 31
0.0
  0
LINE
  8
0
 62
     187
 10
407.074
 20
104.603
 30
0.0
 11
407.705
 21
110.582
 31
0.0
  0
LINE
  8
0
 62
     187
 10
407.705
 20
110.582
 30
0.0
 11
409.593
 21
115.486
 31
0.0
  0
LINE
  8
0
 62
     187
 10
409.593
 20
115.486
 30
0.0
 11
412.528
 21
119.426
 31
0.0
  0
LINE
  8
0
 62
     187
 10
412.528
 20
119.426
 30
0.0
 11
416.295
 21
122.48
 31
0.0
  0
LINE
  8
0
 62
     187
 10
416.295
 20
122.48
 30
0.0
 11
420.793
 21
124.718
 31
0.0
  0
LINE
  8
0
 62
     187
 10
420.793
 20
124.718
 30
0.0
 11
425.884
 21
126.206
 31
0.0
  0
LINE
  8
0
 62
     187
 10
425.884
 20
126.206
 30
0.0
 11
436.876
 21
127.32
 31
0.0
  0
LINE
  8
0
 62
     187
 10
436.876
 20
127.32
 30
0.0
 11
443.452
 21
126.919
 31
0.0
  0
LINE
  8
0
 62
     187
 10
443.452
 20
126.919
 30
0.0
 11
449.411
 21
125.713
 31
0.0
  0
LINE
  8
0
 62
     187
 10
449.411
 20
125.713
 30
0.0
 11
454.755
 21
123.704
 31
0.0
  0
LINE
  8
0
 62
     187
 10
454.755
 20
123.704
 30
0.0
 11
459.486
 21
120.893
 31
0.0
  0
LINE
  8
0
 62
     187
 10
459.486
 20
120.893
 30
0.0
 11
463.451
 21
117.191
 31
0.0
  0
LINE
  8
0
 62
     187
 10
463.451
 20
117.191
 30
0.0
 11
466.499
 21
112.498
 31
0.0
  0
LINE
  8
0
 62
     187
 10
466.499
 20
112.498
 30
0.0
 11
468.63
 21
106.809
 31
0.0
  0
LINE
  8
0
 62
     187
 10
468.63
 20
106.809
 30
0.0
 11
469.84
 21
100.128
 31
0.0
  0
LINE
  8
0
 62
     187
 10
513.588
 20
139.062
 30
0.0
 11
513.588
 21
6.09921
 31
0.0
  0
LINE
  8
0
 62
     187
 10
513.588
 20
6.09921
 30
0.0
 11
605.956
 21
6.09921
 31
0.0
  0
LINE
  8
0
 62
     187
 10
605.956
 20
6.09921
 30
0.0
 11
605.956
 21
21.0013
 31
0.0
  0
LINE
  8
0
 62
     187
 10
605.956
 20
21.0013
 30
0.0
 11
531.283
 21
21.0013
 31
0.0
  0
LINE
  8
0
 62
     187
 10
531.283
 20
21.0013
 30
0.0
 11
531.283
 21
66.9837
 31
0.0
  0
LINE
  8
0
 62
     187
 10
531.283
 20
66.9837
 30
0.0
 11
600.368
 21
66.9837
 31
0.0
  0
LINE
  8
0
 62
     187
 10
600.368
 20
66.9837
 30
0.0
 11
600.368
 21
81.8857
 31
0.0
  0
LINE
  8
0
 62
     187
 10
600.368
 20
81.8857
 30
0.0
 11
531.283
 21
81.8857
 31
0.0
  0
LINE
  8
0
 62
     187
 10
531.283
 20
81.8857
 30
0.0
 11
531.283
 21
124.161
 31
0.0
  0
LINE
  8
0
 62
     187
 10
531.283
 20
124.161
 30
0.0
 11
605.388
 21
124.161
 31
0.0
  0
LINE
  8
0
 62
     187
 10
605.388
 20
124.161
 30
0.0
 11
605.388
 21
139.062
 31
0.0
  0
LINE
  8
0
 62
     187
 10
605.388
 20
139.062
 30
0.0
 11
513.588
 21
139.062
 31
0.0
  0
ENDSEC
  0
EOF
